<?xml version="1.0" encoding="UTF-8"?>
<svg version="1.1" xmlns="http://www.w3.org/2000/svg" width="1113" height="1602">
<path d="M0 0 C367.29 0 734.58 0 1113 0 C1113 528.66 1113 1057.32 1113 1602 C745.71 1602 378.42 1602 0 1602 C0 1073.34 0 544.68 0 0 Z " fill="#FEFEFE" transform="translate(0,0)"/>
<path d="M0 0 C0 4 0 4 -2.375 6.4375 C-3.24125 7.283125 -4.1075 8.12875 -5 9 C-7.75537559 13.80328988 -7.2235382 18.94974779 -7.125 24.3125 C-7.11597656 25.24384766 -7.10695313 26.17519531 -7.09765625 27.13476562 C-7.07418263 29.4234436 -7.04134729 31.71158672 -7 34 C-7.90621094 34.25652344 -8.81242188 34.51304688 -9.74609375 34.77734375 C-19.53318756 37.85328752 -26.25916988 41.58199748 -31.62109375 50.78125 C-34.0449332 55.77998972 -35.69510866 60.41032549 -36 66 C-36.0928125 67.13695312 -36.0928125 67.13695312 -36.1875 68.296875 C-36.70038581 78.61870194 -32.65383514 86.12726184 -26.06640625 93.8671875 C-20.65194004 99.45565357 -14.5135741 100.85104299 -7 102 C-6.82984375 102.80824219 -6.6596875 103.61648438 -6.484375 104.44921875 C-4.53457485 113.63446908 -4.53457485 113.63446908 1.8125 120.1875 C4.82821677 121.30762337 7.89503586 122.16404812 11 123 C10.34 123.99 9.68 124.98 9 126 C0.42857143 125.14285714 0.42857143 125.14285714 -3 123 C-8.15483461 128.32666243 -9.09949975 134.37143058 -9.125 141.5625 C-9.08375 142.696875 -9.0425 143.83125 -9 145 C-9.60328125 145.19335938 -10.2065625 145.38671875 -10.828125 145.5859375 C-11.62734375 145.84632813 -12.4265625 146.10671875 -13.25 146.375 C-14.03890625 146.63023437 -14.8278125 146.88546875 -15.640625 147.1484375 C-21.00282882 149.08380245 -23.12264182 150.91666722 -26 156 C-28.76557069 162.63736967 -29.01682337 169.92845562 -28 177 C-24.69261897 184.63670563 -19.96143336 190.01928332 -12.5 193.75 C-7.65886556 195.47500193 -2.83537971 195.18452598 2.2421875 195.0078125 C5 195 5 195 7 196 C6.34 197.32 5.68 198.64 5 200 C1.04 200 -2.92 200 -7 200 C-6.938125 201.711875 -6.87625 203.42375 -6.8125 205.1875 C-6.82794283 211.21792347 -8.0496941 213.826802 -12.05078125 218.28515625 C-15.55515219 221.76585333 -19.76194707 224.08227584 -24 226.5625 C-32.86122398 230.96904168 -32.86122398 230.96904168 -38.70703125 238.140625 C-38.75923828 239.18476562 -38.75923828 239.18476562 -38.8125 240.25 C-38.874375 241.4875 -38.93625 242.725 -39 244 C-30.06111155 240.73929872 -30.06111155 240.73929872 -21.5 236.625 C-18 235 -18 235 -15.3125 234.9375 C-12.14631745 236.39223252 -10.33699503 238.42930547 -8 241 C-7.071875 241.825 -6.14375 242.65 -5.1875 243.5 C-3 246 -3 246 -2.55078125 248.32421875 C-3.19906255 252.18572041 -5.17950616 253.66828702 -8 256.3125 C-8.928125 257.19550781 -9.85625 258.07851562 -10.8125 258.98828125 C-11.8953125 259.98408203 -11.8953125 259.98408203 -13 261 C-11.75023244 264.65316671 -11.32901247 265.78065836 -8 268 C-7.071875 267.2575 -7.071875 267.2575 -6.125 266.5 C-4 265 -4 265 -2 265 C-1.773125 263.906875 -1.54625 262.81375 -1.3125 261.6875 C0 258 0 258 2.4375 256 C5 255 5 255 8 256 C8.88769618 264.86473579 9.17352185 273.65264111 9.203125 282.55859375 C9.20595238 283.22536699 9.20877975 283.89214024 9.21169281 284.57911873 C9.22652429 288.09270731 9.23586038 291.60625637 9.24023438 295.11987305 C9.24576468 298.73331042 9.26993252 302.34637966 9.29820633 305.95970058 C9.31683649 308.75900865 9.322038 311.55822681 9.32357025 314.35759163 C9.32804241 316.33458449 9.3466581 318.31152914 9.36553955 320.28843689 C9.36253845 321.49061356 9.35953735 322.69279022 9.35644531 323.93139648 C9.36191376 325.51258522 9.36191376 325.51258522 9.36749268 327.12571716 C8.94854849 330.40241941 7.87315851 332.31178814 6 335 C3.30150021 333.98735543 2.19520949 333.35013765 0.76953125 330.79296875 C0.45371094 329.93316406 0.13789062 329.07335938 -0.1875 328.1875 C-0.67283203 326.90939453 -0.67283203 326.90939453 -1.16796875 325.60546875 C-2 323 -2 323 -2.4765625 320.25390625 C-2.64929688 319.51011719 -2.82203125 318.76632812 -3 318 C-5.2029802 316.61750282 -5.2029802 316.61750282 -8 316 C-8.9075 315.731875 -9.815 315.46375 -10.75 315.1875 C-16.12548116 314.87737609 -20.96995521 316.34439385 -25.16015625 319.76171875 C-27.28900818 322.35159594 -27.99651689 324.38724885 -28.8125 327.625 C-29.19341797 329.06746094 -29.19341797 329.06746094 -29.58203125 330.5390625 C-30.24845669 332.99530797 -30.24845669 332.99530797 -29 335 C-28.97929809 336.87500146 -29.00901351 338.75064725 -29.0625 340.625 C-29.79728087 353.99132629 -29.79728087 353.99132629 -25.3203125 365.90234375 C-19.26424842 369.01910933 -11.61025527 368.84478888 -5 368 C-0.71793416 366.15428197 1.02499053 364.39570304 2.875 360.25 C3.431875 358.64125 3.431875 358.64125 4 357 C4.99 357.33 5.98 357.66 7 358 C7.63963442 362.39748664 8.00364871 366.31656581 7.6875 370.75 C7.5925784 372.97628839 7.5925784 372.97628839 8 375 C10.91158691 377.84226341 12.86909387 378.82790559 16.875 379.4375 C20.15478246 379.10375266 20.15478246 379.10375266 23.625 377.5625 C33.40410423 373.71740798 41.55205498 375.17296568 51.39453125 378.0625 C59.63629674 380.20553761 66.24138041 379.06639732 74.25390625 376.6796875 C82.25957898 374.69819809 89.35182531 376.2004647 97.15234375 378.32421875 C102.74278975 379.65089524 107.71377934 379.39661465 113.25 378 C122.25711759 375.78358886 131.8880034 376.8481449 141 378 C141 379.32 141 380.64 141 382 C140.33468262 381.99476318 139.66936523 381.98952637 138.98388672 381.98413086 C135.94760089 381.96324747 132.91133022 381.9503038 129.875 381.9375 C128.30492187 381.92493164 128.30492187 381.92493164 126.703125 381.91210938 C121.65404391 381.89613127 116.97646916 382.09392018 112 383 C109.16578972 383.16678101 106.33854125 383.18500568 103.5 383.1875 C102.76652344 383.19974609 102.03304687 383.21199219 101.27734375 383.22460938 C96.74269171 383.23677749 93.30789082 382.53938481 89 381 C82.73309029 380.3241568 76.94507148 380.84950376 70.875 382.5 C59.45090165 385.58480175 50.12195974 383.09096648 39 380 C39.07927734 381.51207031 39.07927734 381.51207031 39.16015625 383.0546875 C38.88276137 389.88807349 35.77724324 395.84799466 33 402 C32.57509277 402.9600293 32.57509277 402.9600293 32.14160156 403.93945312 C31.31650885 405.76732174 30.44025527 407.57182854 29.5625 409.375 C29.04816406 410.43460938 28.53382813 411.49421875 28.00390625 412.5859375 C26 415 26 415 22.40234375 415.9765625 C21.27957031 415.98429687 20.15679688 415.99203125 19 416 C18.34 415.34 17.68 414.68 17 414 C17.0234375 411.6171875 17.0234375 411.6171875 17.375 408.875 C17.48585938 407.96492188 17.59671875 407.05484375 17.7109375 406.1171875 C17.80632812 405.41851563 17.90171875 404.71984375 18 404 C16.59248779 403.13083113 15.1735479 402.28014851 13.75 401.4375 C12.96109375 400.96183594 12.1721875 400.48617188 11.359375 399.99609375 C8.64319092 398.8493604 7.69810428 398.9548396 5 400 C4.195625 400.350625 3.39125 400.70125 2.5625 401.0625 C-0.20551387 402.075188 -2.08052668 402.39452342 -5 402 C-7.1610211 398.75846834 -7.64247553 397.76307099 -7 394 C-4.8125 392 -4.8125 392 -2 390 C1.81707546 386.62677052 4.02730636 384.07962237 5 379 C4.22527948 376.95021083 4.22527948 376.95021083 3 375 C2.61709538 373.00889599 2.27395385 371.00899487 2 369 C0.906875 369.66 -0.18625 370.32 -1.3125 371 C-7.48154755 374.04107978 -13.42836998 373.95088851 -20.0078125 372.19921875 C-24.53385711 370.63622468 -28.2594265 369.02890987 -32 366 C-32.61488281 366.42152344 -33.22976563 366.84304688 -33.86328125 367.27734375 C-34.67152344 367.82519531 -35.47976563 368.37304688 -36.3125 368.9375 C-37.51326172 369.75541016 -37.51326172 369.75541016 -38.73828125 370.58984375 C-41.96497005 372.60164799 -44.46250746 373.12356545 -48.1875 373.0625 C-49.445625 373.041875 -50.70375 373.02125 -52 373 C-52 373.66 -52 374.32 -52 375 C-55.51986431 377.58813552 -58.62532001 378.8138434 -63 379 C-65.375 378.125 -65.375 378.125 -67 376 C-67.33231633 372.97163348 -67.22894353 370.03350174 -67 367 C-68.3921875 367.0928125 -68.3921875 367.0928125 -69.8125 367.1875 C-73 367 -73 367 -74.875 365.8125 C-76.48241237 363.22278007 -76.64260608 361.99882835 -76 359 C-74.04072937 357.2856382 -72.04119788 355.61594832 -70 354 C-70 353.01 -70 352.02 -70 351 C-70.94875 350.5875 -71.8975 350.175 -72.875 349.75 C-76 348 -76 348 -77.5625 346.125 C-78 344 -78 344 -76.9375 341.375 C-74.68783634 338.61734777 -73.36762532 338.03434206 -70 337 C-67.23828125 336.98046875 -67.23828125 336.98046875 -64.3125 337.1875 C-57.93364277 337.32170863 -53.23567358 335.62216411 -48 332 C-47.67 331.34 -47.34 330.68 -47 330 C-47.6290625 329.85304688 -48.258125 329.70609375 -48.90625 329.5546875 C-56.69403457 327.51391263 -62.20426933 324.36221589 -67.38085938 318.13671875 C-71.72171029 313.80531585 -77.12139703 312.64302768 -82.890625 311.01953125 C-84.60206696 310.51023323 -84.60206696 310.51023323 -86.3480835 309.99064636 C-89.97696065 308.91296146 -93.61257625 307.8609424 -97.25 306.8125 C-100.90071751 305.75046872 -104.54952012 304.68289618 -108.19476318 303.60221863 C-110.4594771 302.93172379 -112.72754711 302.27244364 -114.99908447 301.6254425 C-116.02064636 301.32470322 -117.04220825 301.02396393 -118.09472656 300.71411133 C-119.44658051 300.3248925 -119.44658051 300.3248925 -120.82574463 299.92781067 C-123 299 -123 299 -125 296 C-124.74883822 292.44067872 -123.61834284 289.09927617 -121.875 286 C-114.5653926 282.10154272 -104.35531897 286.78653855 -97 289 C-95.04086452 289.6054835 -93.08258231 290.21373237 -91.125 290.82421875 C-89.5927478 291.29976196 -89.5927478 291.29976196 -88.02954102 291.78491211 C-85.99860187 292.41880887 -83.97031949 293.06129372 -81.94506836 293.71313477 C-77.17559496 295.21024779 -73.06650136 296.44428005 -68 296 C-66.50656376 293.29930572 -65.03293507 290.58827625 -63.5625 287.875 C-63.14162109 287.11445312 -62.72074219 286.35390625 -62.28710938 285.5703125 C-60.05724305 281.4316806 -58.1391677 277.80128561 -58 273 C-58.77751082 270.83064537 -58.77751082 270.83064537 -60.1875 269 C-60.65542969 268.31421875 -61.12335937 267.6284375 -61.60546875 266.921875 C-62.73598079 265.36385841 -63.86779268 263.80678507 -65 262.25 C-70.7616461 252.88732509 -73.9889597 241.80718461 -77.78979492 231.54150391 C-79.36792024 227.28861896 -80.93866494 223.05599791 -82.7734375 218.90625 C-84 216 -84 216 -84 213.8125 C-82.47394795 211.04653066 -80.64865926 209.68551044 -78 208 C-75.4375 207.4375 -75.4375 207.4375 -73 208 C-70.33592186 210.5833485 -68.73392295 213.42422386 -67.11328125 216.71484375 C-66.76402588 217.42108887 -66.41477051 218.12733398 -66.05493164 218.85498047 C-65.53274048 219.91676514 -65.53274048 219.91676514 -65 221 C-60.63938628 229.81148593 -56.22905398 238.57982914 -51.52636719 247.21508789 C-50.13018388 249.79405009 -48.93001837 252.2099449 -48 255 C-47.15453613 254.83411377 -46.30907227 254.66822754 -45.43798828 254.49731445 C-41.8756705 253.9820154 -38.58835054 253.95097613 -34.9921875 254.04296875 C-33.01798828 254.07487305 -33.01798828 254.07487305 -31.00390625 254.10742188 C-28.93201952 254.14460453 -26.86094055 254.18789996 -24.78955078 254.24682617 C-22.77417491 254.30134083 -20.75812363 254.32876106 -18.7421875 254.35546875 C-17.5444873 254.38278076 -16.34678711 254.41009277 -15.11279297 254.43823242 C-11.90488092 254.25089122 -11.90488092 254.25089122 -9.57348633 252.10546875 C-7.77842873 250.16476135 -7.77842873 250.16476135 -8.08203125 247.95703125 C-9.0719813 245.846542 -10.08633985 244.38111559 -11.6875 242.6875 C-12.40486328 241.88892578 -12.40486328 241.88892578 -13.13671875 241.07421875 C-15.05252481 239.74558341 -15.05252481 239.74558341 -17.83984375 240.140625 C-21.20574818 241.0559513 -23.83728662 242.35831862 -26.875 244.0625 C-32.00591691 246.72368452 -35.27378005 247.84832888 -41 247 C-43.33626505 244.66373495 -43.36789798 244.01046981 -43.5 240.8125 C-43.33748305 236.3821466 -42.38091877 233.98475773 -39.30078125 230.81640625 C-35.04918953 227.45988647 -30.3400759 224.84382538 -25.65234375 222.1484375 C-20.69355487 219.28110196 -16.05695058 216.05695058 -12 212 C-11.53723129 209.96803073 -11.53723129 209.96803073 -11.375 207.6875 C-11.30152344 206.88828125 -11.22804688 206.0890625 -11.15234375 205.265625 C-10.98901837 202.83668345 -10.9214954 200.43364261 -11 198 C-11.66 197.95875 -12.32 197.9175 -13 197.875 C-22.00065966 195.2498076 -27.33970574 187.52250023 -31.875 179.8125 C-34.70053916 170.23706175 -33.51664814 160.83569292 -29 152 C-26.06263217 146.98811614 -23.19638658 144.77011425 -17.625 143.0625 C-16.08908109 142.68418369 -14.54882981 142.32139749 -13 142 C-13.04640625 141.29875 -13.0928125 140.5975 -13.140625 139.875 C-13.46927407 131.23622454 -11.53431423 125.64117707 -6 119 C-6.99 117.7625 -6.99 117.7625 -8 116.5 C-10.61234126 112.65507519 -10.31334134 109.54344936 -10 105 C-10.94359375 104.99613281 -10.94359375 104.99613281 -11.90625 104.9921875 C-18.98724462 104.67226304 -22.89933769 102.85625557 -28 98 C-28.61875 97.42121094 -29.2375 96.84242187 -29.875 96.24609375 C-35.9443482 89.98053817 -40.79125407 80.51219723 -41.125 71.69921875 C-40.89247567 58.77216661 -37.16482935 49.06032062 -28.1875 39.375 C-23.50620627 35.01630691 -17.65422162 31 -11 31 C-11.495 30.01 -11.495 30.01 -12 29 C-12.91206407 18.84768023 -11.43478852 10.47419421 -6 1.8125 C-4 0 -4 0 0 0 Z " fill="#000000" transform="translate(662,1083)"/>
<path d="M0 0 C1.65032227 0.06864258 1.65032227 0.06864258 3.33398438 0.13867188 C5.0577832 0.23438477 5.0577832 0.23438477 6.81640625 0.33203125 C7.96173828 0.37650391 9.10707031 0.42097656 10.28710938 0.46679688 C19.26956222 0.89253045 19.26956222 0.89253045 23.37890625 3.14453125 C28.458539 3.74350785 33.49982315 3.85418311 38.19140625 1.64453125 C41.60101016 0.04001176 43.66154496 -0.28772006 47.37890625 0.14453125 C50.83133875 3.59696375 50.308543 8.44298654 50.37890625 13.14453125 C49.6075295 22.58961105 42.86106308 30.58181888 37.67578125 38.13671875 C36.41750106 40.08477905 35.3737275 42.05165259 34.37890625 44.14453125 C35.36604075 45.36492062 35.36604075 45.36492062 37.26953125 45.1640625 C42.66211475 44.69087223 45.20071437 43.7424187 49.37890625 40.14453125 C52.00390625 39.64453125 52.00390625 39.64453125 54.37890625 40.14453125 C56.51877061 41.91545348 57.22706438 43.33025838 57.734375 46.05078125 C58.0086067 50.02343501 58.0086067 50.02343501 57.37890625 52.14453125 C52.0653778 57.28665556 44.58564888 60.15714671 37.16210938 60.13916016 C35.58688083 60.05036374 34.01192327 59.95664458 32.43725586 59.85839844 C21.70214626 59.19061797 16.12091075 61.76223946 7.9921875 68.73828125 C7.12980469 69.53234375 6.26742187 70.32640625 5.37890625 71.14453125 C6.64168163 74.68152831 8.08402907 77.22377052 10.50390625 80.08203125 C12.74993326 82.95498327 13.35201018 83.89350128 13.75390625 87.64453125 C13.56828125 88.88203125 13.56828125 88.88203125 13.37890625 90.14453125 C7.21285325 93.16710625 7.21285325 93.16710625 3.92578125 93.078125 C-2.02297779 90.89752161 -6.18043037 82.81895424 -9.08984375 77.41796875 C-11.62109375 71.86729911 -11.62109375 71.86729911 -11.62109375 69.14453125 C-12.85859375 68.77328125 -12.85859375 68.77328125 -14.12109375 68.39453125 C-17.62109375 67.14453125 -17.62109375 67.14453125 -20.88671875 65.07421875 C-27.13245619 61.91109205 -34.05844804 62.79709739 -40.87109375 63.01953125 C-43.56384593 63.0925658 -46.25583258 63.14865122 -48.94921875 63.19921875 C-50.7266748 63.25311768 -50.7266748 63.25311768 -52.54003906 63.30810547 C-55.52833511 63.14945584 -57.12057609 62.7187313 -59.62109375 61.14453125 C-59.64797526 59.49878559 -59.66743498 57.85291712 -59.68359375 56.20703125 C-59.69519531 55.29050781 -59.70679688 54.37398437 -59.71875 53.4296875 C-59.62109375 51.14453125 -59.62109375 51.14453125 -58.62109375 50.14453125 C-56.79740644 50.00669442 -54.97344274 49.87180846 -53.1484375 49.75268555 C-42.93330351 48.98720756 -37.02912928 46.07894769 -28.62109375 40.14453125 C-26.86524456 39.11844923 -25.09596621 38.11466031 -23.30859375 37.14453125 C-22.59058594 36.75265625 -21.87257813 36.36078125 -21.1328125 35.95703125 C-20.63394531 35.68890625 -20.13507812 35.42078125 -19.62109375 35.14453125 C-27.1965529 33.66408809 -34.76062704 32.61443706 -42.43359375 31.8046875 C-45.61247731 31.14631578 -46.85174152 30.82815842 -48.62109375 28.14453125 C-48.37656251 24.80260433 -48.01565818 23.53909568 -45.62109375 21.14453125 C-42.95269352 20.88448782 -40.35774113 20.73118281 -37.68359375 20.64453125 C-36.13264363 20.5563055 -34.58185692 20.4651587 -33.03125 20.37109375 C-30.4594342 20.2231938 -27.94648681 20.14939036 -25.3671875 20.16796875 C-22.2031082 19.99693744 -20.38737619 19.72716399 -17.62109375 18.14453125 C-14.67534666 14.66329583 -12.57618794 10.68504615 -10.49609375 6.6484375 C-7.57681504 1.19303541 -6.30214294 -0.28107083 0 0 Z " fill="#020202" transform="translate(577.62109375,981.85546875)"/>
<path d="M0 0 C2.44729185 0.99214534 3.72011368 1.84225484 5.3125 3.9375 C5.3125 4.5975 5.3125 5.2575 5.3125 5.9375 C7.56084496 6.07276139 9.81152514 6.16960804 12.0625 6.25 C13.94195313 6.33701172 13.94195313 6.33701172 15.859375 6.42578125 C19.47273862 6.28595678 19.47273862 6.28595678 21.59375 3.46875 C22.1609375 2.6334375 22.728125 1.798125 23.3125 0.9375 C26.0625 0.125 26.0625 0.125 28.3125 -0.0625 C31.9426633 4.35682923 32.41798609 7.80183123 32.55859375 13.4375 C32.59146484 14.489375 32.62433594 15.54125 32.65820312 16.625 C32.71939814 18.83322862 32.77669034 21.04156884 32.83007812 23.25 C32.86423828 24.301875 32.89839844 25.35375 32.93359375 26.4375 C32.9586499 27.3965625 32.98370605 28.355625 33.00952148 29.34375 C33.32282123 32.02585839 33.81986011 33.69549397 35.3125 35.9375 C40.09126878 37.45271937 45.45497168 37.11353317 50.3125 35.9375 C52.131778 32.29894399 51.20496628 27.90189749 51.0546875 23.90625 C51.13976562 22.9265625 51.22484375 21.946875 51.3125 20.9375 C54.3125 18.9375 54.3125 18.9375 56.8125 19.0625 C59.87101264 20.13297942 60.72003953 21.15069418 62.3125 23.9375 C63.20112675 26.87872938 63.5619153 29.68283528 63.6875 32.75 C63.73648438 33.56082031 63.78546875 34.37164063 63.8359375 35.20703125 C63.06567351 39.22505011 61.2815257 42.11707563 58.3125 44.9375 C55.23710394 45.6434 53.18993004 45.87614681 50.125 45.8046875 C49.34487549 45.81460724 48.56475098 45.82452698 47.76098633 45.83474731 C45.27708559 45.85981118 42.79635301 45.83756022 40.3125 45.8125 C37.82957177 45.81924447 35.34687628 45.83561624 32.86401367 45.85452271 C31.32253151 45.86278093 29.78096811 45.86213005 28.23950195 45.85128784 C24.46311445 45.83708481 20.98339482 46.02248078 17.3125 46.9375 C18.74560046 52.74104868 20.03397831 57.88311239 23.3125 62.9375 C23.56193359 63.91009766 23.56193359 63.91009766 23.81640625 64.90234375 C24.41871448 67.2315497 24.95961993 68.93853298 26.3125 70.9375 C29.54445409 72.51577091 32.80780277 73.21011001 36.3125 73.9375 C36.9725 74.2675 37.6325 74.5975 38.3125 74.9375 C37.8175 76.4225 37.8175 76.4225 37.3125 77.9375 C10.18057647 78.70919269 10.18057647 78.70919269 0.3125 74.9375 C-3.8778624 70.94026883 -5.53106379 67.31019062 -6.9375 61.75 C-7.25203125 60.53957031 -7.5665625 59.32914063 -7.890625 58.08203125 C-8.15359375 57.04433594 -8.4165625 56.00664063 -8.6875 54.9375 C-9.0175 53.9475 -9.3475 52.9575 -9.6875 51.9375 C-10.64011719 52.31003906 -11.59273437 52.68257812 -12.57421875 53.06640625 C-13.84089729 53.54492925 -15.1078385 54.02275736 -16.375 54.5 C-17.31375977 54.8702832 -17.31375977 54.8702832 -18.27148438 55.24804688 C-22.12712987 56.68129729 -24.74858955 57.27482952 -28.6875 55.9375 C-30.24735209 54.37764791 -29.93202344 52.84843902 -30 50.6875 C-29.93524437 47.54436138 -29.71915431 46.00224746 -28.3125 43.125 C-23.75652008 39.32835007 -18.24927392 37.79142464 -12.6875 35.9375 C-12.67291748 35.28789307 -12.65833496 34.63828613 -12.64331055 33.96899414 C-12.56808338 30.9787806 -12.47167388 27.98959403 -12.375 25 C-12.35244141 23.97841797 -12.32988281 22.95683594 -12.30664062 21.90429688 C-12.08558041 15.61412894 -11.57466426 9.63383879 -8.6875 3.9375 C-5.68423168 1.19538544 -4.09839537 -0.09531152 0 0 Z " fill="#000000" transform="translate(654.6875,1003.0625)"/>
<path d="M0 0 C2.96482674 0.13789892 5.21234484 0.28944336 7.4765625 2.33203125 C10.94408855 6.49914589 12.13072696 8.8032975 12.0625 14.125 C12.05347656 15.03507812 12.04445313 15.94515625 12.03515625 16.8828125 C12.02355469 17.58148438 12.01195313 18.28015625 12 19 C12.59554687 19.10441406 13.19109375 19.20882813 13.8046875 19.31640625 C17.75949307 20.54788485 19.90108758 23.54296778 22 27 C23.01813247 30.30412802 23.59965616 33.56946747 24 37 C25.65 37 27.3 37 29 37 C28.67 38.32 28.34 39.64 28 41 C25.69 41.66 23.38 42.32 21 43 C20.8200072 48.21979128 21.02905192 52.07262981 23 57 C21.6078125 57.61875 21.6078125 57.61875 20.1875 58.25 C15.92615094 61.06067704 15.44383004 65.26362745 14.46484375 70.01953125 C13.66170496 75.16906818 13.11424029 79.39937989 16 84 C17.78832186 85.29186063 17.78832186 85.29186063 19.875 86.1875 C20.55304688 86.51105469 21.23109375 86.83460938 21.9296875 87.16796875 C23.93810364 87.97512467 25.88939815 88.53150318 28 89 C28.03738281 89.61488281 28.07476562 90.22976563 28.11328125 90.86328125 C28.21189453 92.07564453 28.21189453 92.07564453 28.3125 93.3125 C28.37050781 94.11300781 28.42851563 94.91351562 28.48828125 95.73828125 C29.09070078 98.40088361 29.84177903 99.36561907 32 101 C34.45809998 101.2500773 34.45809998 101.2500773 37 101 C38.32 101 39.64 101 41 101 C40.67 102.65 40.34 104.3 40 106 C36.7 106 33.4 106 30 106 C28.04736387 109.90527225 27.72740389 111.43342118 27.75 115.625 C27.74484375 116.58664062 27.7396875 117.54828125 27.734375 118.5390625 C27.75887912 121.17697348 27.75887912 121.17697348 30 123 C29.859375 124.984375 29.859375 124.984375 29 127 C27.328125 128.203125 27.328125 128.203125 25.25 129.25 C19.72136911 132.44608464 16.99019383 137.0294185 15 143 C14.39708228 148.87844772 14.59266326 154.97985721 18 160 C21.653587 162.84716464 25.10115697 163.92382686 29.6875 164.3125 C33 165 33 165 34.23046875 166.50390625 C34.60816406 167.12136719 34.98585937 167.73882813 35.375 168.375 C37.7923762 172.17262003 40.0107862 173.40682048 44.328125 174.55859375 C54.23099485 176.19636886 54.23099485 176.19636886 63.1875 172.75 C63.785625 171.8425 64.38375 170.935 65 170 C65.4125 169.401875 65.825 168.80375 66.25 168.1875 C67.39712344 164.8417233 67.64835791 161.5164209 68 158 C69.32 157.67 70.64 157.34 72 157 C72 157.66 72 158.32 72 159 C74.64 159 77.28 159 80 159 C80.33 157.35 80.66 155.7 81 154 C82.32 154 83.64 154 85 154 C85 156.31 85 158.62 85 161 C88.18490007 161.2773501 88.18490007 161.2773501 91 159 C94.39107371 158.45397966 97.60874176 158.45372076 101 159 C104.69264401 161.86368311 106.74125481 164.10253527 107.375 168.75 C106.86781742 173.14558236 105.08724149 174.91275851 102 178 C98.91865097 180.33757513 95.66404451 180.43674562 91.89453125 180.296875 C90 180 90 180 87.6875 178.625 C85.56032349 175.31605876 84.76735594 172.06051252 83.90625 168.2421875 C83.1891962 165.8737306 83.1891962 165.8737306 81.109375 164.703125 C78.34818454 163.78272818 75.88866128 163.86869721 73 164 C72.78085938 164.66386719 72.56171875 165.32773437 72.3359375 166.01171875 C69.90264417 172.78735261 67.60449365 176.69775318 61 180 C58.34326192 180.09829064 55.7186515 180.13901663 53.0625 180.125 C52.33353516 180.12886719 51.60457031 180.13273438 50.85351562 180.13671875 C47.64142264 180.1308304 45.0678556 180.02261853 42 179 C41.96132812 179.87011719 41.96132812 179.87011719 41.921875 180.7578125 C41.52262125 186.25662555 40.5751639 189.60765578 37 194 C36.4225 194.763125 35.845 195.52625 35.25 196.3125 C31.93611818 198.79791136 29.10120442 198.72658637 25 199 C25.0825 199.99 25.165 200.98 25.25 202 C25.23822746 207.80386225 22.65982775 212.34017225 18.625 216.375 C12.48537035 220.17572312 7.02250443 220.24981241 0 220 C-0.66 218.68 -1.32 217.36 -2 216 C1 215 1 215 4.75 215.125 C9.93970705 215.18234483 13.87832805 213.83878236 17.875 210.375 C19.61770988 206.69594581 20.39919432 203.07479484 20 199 C17.77512121 196.60336043 17.77512121 196.60336043 15 195 C12.71822536 191.74032194 12.52007852 188.91935879 13 185 C14.79993774 182.30009338 16.083773 180.4581135 19 179 C22.54231061 178.61496624 24.36257342 178.58064041 27.375 180.5625 C29.54455002 183.81682503 29.29451507 186.17130414 29 190 C26.525 190.99 26.525 190.99 24 192 C23.505 190.02 23.505 190.02 23 188 C23.66 188 24.32 188 25 188 C24.505 186.02 24.505 186.02 24 184 C22.35 184.33 20.7 184.66 19 185 C18.10325223 187.51089376 17.86827326 188.64535109 18.8125 191.1875 C19.88121987 193.15022193 19.88121987 193.15022193 22 194 C28.38811106 194.5232779 28.38811106 194.5232779 34 192 C35.24714403 189.59047977 35.24714403 189.59047977 36 187 C36.33 186.01 36.66 185.02 37 184 C37.50007794 180.54213985 37.50007794 180.54213985 37 177 C34.69697131 174.6908334 34.69697131 174.6908334 32 173 C31.34 172.01 30.68 171.02 30 170 C27.81898442 169.20215443 27.81898442 169.20215443 25.3125 168.6875 C19.39863418 167.02956652 15.17142399 164.53631906 11.90625 159.21875 C9.27354796 153.27079353 8.8854651 146.23200207 10.5390625 139.953125 C13.00862879 133.8199164 16.5332795 128.74038771 22 125 C22.66 125 23.32 125 24 125 C23.67 124.01 23.34 123.02 23 122 C22.87959396 119.87749355 22.82466181 117.75088413 22.8125 115.625 C22.79832031 114.50351562 22.78414062 113.38203125 22.76953125 112.2265625 C23 109 23 109 24.03515625 106.43359375 C25.82421141 101.92111859 24.79721747 97.40079106 23 93 C21.07793845 91.46923062 19.33544108 90.74237269 17.0390625 89.890625 C13.61898451 88.39679783 12.11958643 86.01880492 10 83 C7.46253696 75.38761087 9.42316138 67.3854998 12 60 C12.721875 59.175 13.44375 58.35 14.1875 57.5 C16.88381107 53.78095025 16.20471338 50.31168934 15.9453125 45.83984375 C16.00276067 42.85664256 16.59428097 41.56022591 18 39 C18.4554332 33.35262826 18.11688762 29.91509202 15 25 C11.95699684 23.47849842 9.345915 23.76100607 6 24 C3.70986347 27.4352048 3.82157027 28.985331 4 33 C5.485 32.505 5.485 32.505 7 32 C7 31.01 7 30.02 7 29 C8.65 29.33 10.3 29.66 12 30 C12.22223194 32.74086056 12.34781139 34.43963721 10.875 36.8125 C8.11646047 38.55957504 6.20161236 38.39203417 3 38 C0.84375 36.77734375 0.84375 36.77734375 -1 35 C-2.00495736 30.9732398 -1.87343705 26.75723107 -0.01171875 23.01171875 C1.25 21.375 1.25 21.375 4 19 C5.32 19 6.64 19 8 19 C7.7473789 13.20234568 7.43181255 9.17856612 3 5 C0.88339573 3.68834743 0.88339573 3.68834743 -1 3 C-0.67 2.01 -0.34 1.02 0 0 Z " fill="#000000" transform="translate(57,438)"/>
<path d="M0 0 C2.5 1 2.5 1 4.125 3.4375 C5.5728463 7.18873815 6.71295202 10.94660075 7.75390625 14.828125 C8.38251483 17.17519215 8.38251483 17.17519215 10.5 19 C10.98919922 18.24203125 10.98919922 18.24203125 11.48828125 17.46875 C11.92527344 16.8190625 12.36226562 16.169375 12.8125 15.5 C13.24175781 14.8503125 13.67101562 14.200625 14.11328125 13.53125 C14.57089844 13.0259375 15.02851562 12.520625 15.5 12 C16.49 12 17.48 12 18.5 12 C20.2542847 15.02510511 20.72985388 17.14152115 20.625 20.625 C20.60695313 21.40101563 20.58890625 22.17703125 20.5703125 22.9765625 C20.54710937 23.64429688 20.52390625 24.31203125 20.5 25 C20.5 25.66 20.5 26.32 20.5 27 C21.82 25.35 23.14 23.7 24.5 22 C27.5 23 27.5 23 28.5 25 C28.63357453 28.67329964 28.6671568 31.49852959 27.5 35 C30.47 35.33 33.44 35.66 36.5 36 C36.83 36.99 37.16 37.98 37.5 39 C32.66320063 46.41642571 24.36817561 50.60281533 15.875 52.625 C5.87363848 53.73626239 -1.7458893 52.89954316 -10.5703125 47.8046875 C-12.71611608 46.67301998 -12.71611608 46.67301998 -15.9375 48 C-19.83770333 49.09479392 -21.04584641 48.9302623 -24.5 47 C-25.5 46 -25.5 46 -25.875 43.125 C-25.75125 42.09375 -25.6275 41.0625 -25.5 40 C-23 38.125 -23 38.125 -20.5 37 C-21.098125 36.113125 -21.69625 35.22625 -22.3125 34.3125 C-26.51783588 26.9494208 -28.4016132 17.41505654 -27.5 9 C-26.21789276 5.98704798 -25.43340884 4.51186936 -22.5625 2.9375 C-21.5415625 2.9684375 -21.5415625 2.9684375 -20.5 3 C-19.6646875 3.9590625 -19.6646875 3.9590625 -18.8125 4.9375 C-15.65497955 7.75366689 -13.41539568 7.32521142 -9.328125 7.140625 C-8.42320312 7.07101562 -8.42320312 7.07101562 -7.5 7 C-7.231875 6.21625 -6.96375 5.4325 -6.6875 4.625 C-5.15755043 1.2430062 -3.7853089 0 0 0 Z " fill="#000000" transform="translate(853.5,983)"/>
<path d="M0 0 C4.98599117 0.53800209 8.51835705 2.11744529 12.875 4.5625 C14.02742188 5.20316406 15.17984375 5.84382812 16.3671875 6.50390625 C17.67042969 7.24447266 17.67042969 7.24447266 19 8 C19 13.02070231 17.03675052 14.65448261 13.75 18.0625 C13.25886719 18.59166016 12.76773438 19.12082031 12.26171875 19.66601562 C9.69550436 22.39304612 7.16394393 24.97703585 4 27 C3.34 27 2.68 27 2 27 C1.505 23.535 1.505 23.535 1 20 C-1.35208784 20.96850676 -3.67764078 21.96461485 -6 23 C-6.886875 23.391875 -7.77375 23.78375 -8.6875 24.1875 C-13.17678863 27.70613163 -15.019625 32.77245494 -15.875 38.3125 C-16.43039387 46.57220367 -15.12058182 53.82538672 -9.69140625 60.22265625 C-9.13324219 60.80917969 -8.57507813 61.39570312 -8 62 C-7.47277344 62.55558594 -6.94554687 63.11117187 -6.40234375 63.68359375 C0.69977495 70.41633512 10.39897241 72.54615452 19.55444336 75.25024414 C22.76042751 76.21215655 25.19062844 77.12708563 28 79 C27.34 81.97 26.68 84.94 26 88 C13.28618164 87.41320838 2.01953179 82.60322176 -9.5 77.5625 C-10.33644043 77.20349609 -11.17288086 76.84449219 -12.03466797 76.47460938 C-18.85419607 73.40479572 -25.56013828 69.68331071 -28.375 62.375 C-28.81972656 61.27285156 -28.81972656 61.27285156 -29.2734375 60.1484375 C-33.20821145 48.51335325 -31.72577512 33.61199914 -28 22 C-25.07828556 16.7422301 -21.78787137 13.11320293 -16.6875 9.9375 C-11.81396754 8.69846632 -7.01259272 8.26286653 -2 8 C-1.34 5.36 -0.68 2.72 0 0 Z " fill="#000000" transform="translate(494,923)"/>
<path d="M0 0 C8.50213131 5.60879792 13.49572914 11.91459358 18 21 C18.71542969 20.50886719 19.43085938 20.01773438 20.16796875 19.51171875 C23.2442022 17.86964655 24.87666968 17.67506679 28.3125 17.8125 C29.19550781 17.83957031 30.07851563 17.86664062 30.98828125 17.89453125 C31.98408203 17.94673828 31.98408203 17.94673828 33 18 C33.2784375 16.2365625 33.2784375 16.2365625 33.5625 14.4375 C34.91970895 9.18528729 37.61685717 6.11392341 42 3 C49.78513605 -1.1496244 58.45205132 -2.58221808 67.1015625 -0.4921875 C72.37246086 1.52793654 76.78243038 5.04319168 79.75 9.8125 C81.75422511 12.22044854 81.75422511 12.22044854 84.29296875 12.20703125 C86.05789561 12.15228463 87.82237783 12.0806256 89.5859375 11.9921875 C92.84165071 12.00272379 94.59644256 12.82904489 97 15 C97.8125 17.1875 97.8125 17.1875 98 19 C97.01 18.34 96.02 17.68 95 17 C92.6210471 16.72060601 92.6210471 16.72060601 90.0625 16.8125 C89.20785156 16.81894531 88.35320312 16.82539062 87.47265625 16.83203125 C85.18779332 16.98724311 83.19377195 17.36375523 81 18 C80.45472656 17.32453125 79.90945313 16.6490625 79.34765625 15.953125 C73.92553928 9.5392704 69.25351955 4.80011361 60.6796875 3.703125 C53.12938754 3.44718263 46.28262423 5.36031427 40.46484375 10.3046875 C38.70328213 12.34340149 38.09421143 14.11901959 37.3125 16.6875 C37.06113281 17.49574219 36.80976563 18.30398438 36.55078125 19.13671875 C36.36902344 19.75160156 36.18726563 20.36648438 36 21 C34.42798828 21.29003906 34.42798828 21.29003906 32.82421875 21.5859375 C31.44524407 21.84859934 30.06634151 22.11164 28.6875 22.375 C27.99720703 22.50132812 27.30691406 22.62765625 26.59570312 22.7578125 C23.16296686 23.42114318 20.94753542 24.03497639 18 26 C15.99609375 25.984375 15.99609375 25.984375 14 25 C12.47265625 22.453125 12.47265625 22.453125 11.0625 19.25 C7.02181496 10.74646879 0.80313066 4.74466648 -8.04296875 1.17578125 C-14.67054836 -0.68946571 -21.3245912 -0.46134168 -28 1 C-27.38253906 1.08636719 -26.76507813 1.17273438 -26.12890625 1.26171875 C-16.07589071 2.92957064 -7.92026972 7.45768356 -1 15 C0.8136412 17.55271215 2.21504059 19.9558891 3 23 C2.38226394 25.63941771 1.90447829 27.09552171 0 29 C-1.68404722 29.27228883 -3.37249489 29.51753712 -5.0625 29.75 C-11.59469121 30.88824918 -16.05749727 33.3422556 -20.9375 37.75 C-23.15187768 42.43927038 -23 47.7081361 -23 52.8125 C-23 55.57244772 -23.336802 57.38211315 -24 60 C-25.07220558 68.71826179 -22.42972494 77.49757563 -17.875 84.9375 C-13.97161679 89.81971325 -8.17623276 92.41661031 -2.12890625 93.52734375 C0.25430924 93.77411642 2.60537429 93.94395557 5 94 C4.88140625 94.65226563 4.7628125 95.30453125 4.640625 95.9765625 C3.97983639 100.45670929 3.6559505 103.21155322 5.5 107.4375 C10.0284185 112.07912897 14.96239568 113.3665103 21.25512695 113.46801758 C21.97531006 113.45794678 22.69549316 113.44787598 23.4375 113.4375 C24.56128052 113.42722778 24.56128052 113.42722778 25.70776367 113.41674805 C32.84479735 113.20882792 37.34833116 111.78765186 42.4375 106.4375 C44.13183285 104.01407924 44.13183285 104.01407924 45 101 C46.485 101.495 46.485 101.495 48 102 C47.7834375 103.5778125 47.7834375 103.5778125 47.5625 105.1875 C47.60657885 108.867386 47.60657885 108.867386 49.3828125 110.5078125 C55.10918 114.64765394 60.23810738 116.22830509 67.3125 116.625 C68.56675781 116.69976563 69.82101562 116.77453125 71.11328125 116.8515625 C72.54220703 116.92503906 72.54220703 116.92503906 74 117 C74 117.99 74 118.98 74 120 C68.45577973 122.86153304 63.04557151 122.79951404 57.11328125 121.2421875 C52.10599037 119.5441209 48.48315347 118.12457334 45 114 C45 113.34 45 112.68 45 112 C44.34773438 112.40992188 43.69546875 112.81984375 43.0234375 113.2421875 C34.10254966 118.7420859 27.53690438 121.03760387 17.0625 119.375 C9.54912941 117.24522566 3.61631178 112.77048673 -0.203125 105.96875 C-1.30902625 103.23652337 -1.36265277 100.90122219 -1 98 C-2.08667969 97.94392578 -2.08667969 97.94392578 -3.1953125 97.88671875 C-11.97292841 97.28984087 -17.26397529 95.37613869 -23.390625 88.96484375 C-30.22346588 80.62280744 -30.52211472 71.40500059 -30 61 C-29.61095961 58.72081057 -29.09109424 56.54331813 -28.48828125 54.3125 C-27.89550189 51.50509696 -27.84672828 48.80352321 -27.75 45.9375 C-27.21629749 38.82749712 -24.51831385 35.06383233 -19.24609375 30.47265625 C-13.71499073 26.48887641 -7.65280661 25.74289674 -1 25 C-5.34370433 15.66103569 -10.95024629 11.09997659 -20.30078125 6.98828125 C-25.18163345 5.21106153 -29.85270777 4.57231581 -35.03125 4.30859375 C-35.6809375 4.20675781 -36.330625 4.10492187 -37 4 C-37.33 3.34 -37.66 2.68 -38 2 C-29.22042227 -7.38415943 -10.3569551 -6.40153506 0 0 Z " fill="#000000" transform="translate(443,768)"/>
<path d="M0 0 C8.41091288 0.71278923 12.38298147 2.95991532 17.86328125 9.37890625 C19 11 19 11 19 13 C23.03843949 11.20247755 23.03843949 11.20247755 26.46875 8.5 C30.06792152 4.97428096 35.01622321 4.09520421 39.875 3.625 C48.32232664 4.02252125 56.04238921 6.92297163 62 13 C68.66486537 21.85256927 70.22466915 33.17213252 69 44 C66.56172429 51.60390106 61.7394304 56.86444044 55 61 C55.66 61.99 56.32 62.98 57 64 C57.1953125 66.26171875 57.1953125 66.26171875 57.125 68.6875 C57.10695313 69.49574219 57.08890625 70.30398438 57.0703125 71.13671875 C57.04710937 71.75160156 57.02390625 72.36648438 57 73 C62.83538016 72.79524982 66.0535003 71.91261986 70.33203125 67.8984375 C72.81924148 65.06756122 74.79697445 61.98091365 76.73828125 58.7578125 C77.15464844 58.17773438 77.57101562 57.59765625 78 57 C78.66 57 79.32 57 80 57 C81.76756086 60.53512172 81.51110756 64.14025674 81 68 C78.20407649 76.13701507 72.92280213 84.08038967 65.3125 88.375 C61.88994707 89.91614956 58.58198453 90.42887789 54.875 90.9375 C49.44922373 91.71067312 47.04922966 93.21485054 43 97 C35.93436204 101.71042531 29.43684544 103.26843607 21 102 C15.95980695 100.35881317 11.97553002 97.47858876 8 94 C7.39414062 94.42152344 6.78828125 94.84304688 6.1640625 95.27734375 C-1.48351581 100.27768341 -7.71220137 101.96261734 -16.75 100.3125 C-23.92848853 98.39487213 -28.801364 93.96974203 -33 88 C-34.19873559 85.69232175 -35.10045436 83.44876313 -36 81 C-38.97 81 -41.94 81 -45 81 C-45.309375 82.3303125 -45.309375 82.3303125 -45.625 83.6875 C-47.42391736 88.02125547 -49.09941532 89.42561411 -53 92 C-55.375 91.8125 -55.375 91.8125 -57 91 C-57 89.68 -57 88.36 -57 87 C-56.360625 86.71125 -55.72125 86.4225 -55.0625 86.125 C-52.84793921 85.17176549 -52.84793921 85.17176549 -52 83 C-51.9047301 81.52331663 -51.87014041 80.04224543 -51.875 78.5625 C-51.87242187 77.78003906 -51.86984375 76.99757813 -51.8671875 76.19140625 C-51.91617452 73.82104653 -51.91617452 73.82104653 -53 71 C-51.0625 71.8125 -51.0625 71.8125 -49 73 C-48.67 73.99 -48.34 74.98 -48 76 C-42.97035748 76.29586132 -40.0661504 76.0496128 -36 73 C-34.24850835 71.41754725 -34.24850835 71.41754725 -33 70 C-32.22270832 72.66500006 -31.91679146 75.01514425 -31.6875 77.8125 C-31.14168573 82.18716061 -29.87058743 85.61373818 -27 89 C-20.93021038 93.65821064 -14.44934245 94.74116561 -7 94 C-4.48783585 93.21404461 -2.37098961 92.18549481 0 91 C0.99 90.67 1.98 90.34 3 90 C3 89.34 3 88.68 3 88 C3.66 88 4.32 88 5 88 C5.495 86.515 5.495 86.515 6 85 C6.99 86.051875 6.99 86.051875 8 87.125 C13.65767157 92.78267157 18.9774545 97.09248468 27.1875 97.3125 C32.63655549 97.24780145 36.59344709 96.25269255 41 93 C41.825 91.989375 42.65 90.97875 43.5 89.9375 C47.0822875 85.96820637 52.08146886 85.85881799 57.09228516 85.11962891 C62.73376377 84.23121741 65.77463132 82.7223486 70 79 C70.66 79 71.32 79 72 79 C73.92205381 74.41664092 75.45730076 69.72065967 77 65 C76.05379431 65.94620569 75.1873437 66.97025086 74.328125 67.99609375 C73.64234375 68.80175781 72.9565625 69.60742188 72.25 70.4375 C71.57453125 71.24058594 70.8990625 72.04367187 70.203125 72.87109375 C67.22351549 75.75032635 64.6869649 76.83946624 60.578125 77.23046875 C59.80984375 77.21628906 59.0415625 77.20210937 58.25 77.1875 C57.47140625 77.18105469 56.6928125 77.17460938 55.890625 77.16796875 C54 77 54 77 53 76 C52.71520878 73.22441577 52.55156981 70.44872155 52.37890625 67.6640625 C52.16415406 64.77821914 52.16415406 64.77821914 50 62 C50 60.68 50 59.36 50 58 C51.609375 56.65625 51.609375 56.65625 53.75 55.5 C58.99400217 52.46107295 62.06101481 49.86667312 64 44 C64.91563009 33.60490547 64.1122567 23.65903033 58 15 C50.91557874 9.30166116 43.87102765 8.16210683 35 9 C30.26168647 10.67234595 26.7339969 13.68217129 22.9296875 16.890625 C21 18 21 18 18.91796875 17.9140625 C16.44142684 16.73379609 15.75964219 15.50747404 14.4375 13.125 C11.59759361 8.07834668 9.29343417 5.87674793 3.8125 3.8125 C2.91144531 3.46832031 2.01039063 3.12414062 1.08203125 2.76953125 C0.39496094 2.51558594 -0.29210937 2.26164063 -1 2 C-0.67 1.34 -0.34 0.68 0 0 Z " fill="#000000" transform="translate(655,793)"/>
<path d="M0 0 C7.78549913 3.27569924 13.55628778 8.29429421 16.78515625 16.19140625 C18.8125 22.06598837 18.8125 22.06598837 18.8125 24.8125 C32.48144239 27.68802625 32.48144239 27.68802625 45.8125 24.8125 C46.3075 23.3275 46.3075 23.3275 46.8125 21.8125 C50.0625 21.5 50.0625 21.5 53.8125 21.8125 C56.3125 23.875 56.3125 23.875 57.8125 26.8125 C57.88634551 31.02169409 57.55653756 33.00281207 54.6875 36.125 C47.7860392 40.17585743 41.00684987 40.16580508 33.1875 40.125 C32.12023682 40.12153564 31.05297363 40.11807129 29.95336914 40.11450195 C20.70704661 39.98710724 12.35073606 39.00935563 3.875 35.0625 C0.16472597 33.54810244 -1.37726659 33.64610202 -5.1875 34.8125 C-6.39698126 35.4844721 -7.60098658 36.16635035 -8.80078125 36.85546875 C-13.41877568 39.19750072 -17.34255189 39.28328108 -22.4375 39.0625 C-23.22640625 39.04445312 -24.0153125 39.02640625 -24.828125 39.0078125 C-26.28833891 38.97328041 -27.74840158 38.93044463 -29.20800781 38.87597656 C-33.30458945 38.74461109 -35.60010334 39.01234487 -39.1875 40.8125 C-42.4687797 41.2468407 -45.75524904 41.18272763 -49.0625 41.1875 C-49.94808594 41.21199219 -50.83367188 41.23648438 -51.74609375 41.26171875 C-57.39769808 41.28698673 -60.7535067 40.66179088 -65.1875 36.8125 C-67.28514648 33.63219728 -68.28455341 31.88008747 -67.9375 28.0625 C-67.1875 25.8125 -67.1875 25.8125 -66.1875 23.8125 C-66.39375 22.78125 -66.6 21.75 -66.8125 20.6875 C-67.27018435 15.95809508 -66.85173101 12.78872393 -64.1875 8.8125 C-58.27284501 3.81694131 -53.64461247 1.66277996 -45.9375 1.625 C-44.63296875 1.61082031 -43.3284375 1.59664063 -41.984375 1.58203125 C-38.1875 1.8125 -38.1875 1.8125 -34.9375 2.9375 C-32.30544576 4.06540296 -32.30544576 4.06540296 -30.140625 3.16796875 C-29.57859375 2.78253906 -29.0165625 2.39710937 -28.4375 2 C-20.98175482 -3.01829002 -8.59707314 -2.65101384 0 0 Z M-30.1875 7.8125 C-30.1875 8.4725 -30.1875 9.1325 -30.1875 9.8125 C-31.7653125 9.1009375 -31.7653125 9.1009375 -33.375 8.375 C-40.14399478 5.51067487 -47.41714133 4.43486895 -54.4375 7 C-58.58355962 9.7326302 -61.60897457 11.96121861 -63.125 16.8125 C-63.19199625 20.02832016 -62.6152299 21.9570402 -61.1875 24.8125 C-61.8475 25.4725 -62.5075 26.1325 -63.1875 26.8125 C-63.7713196 29.7274255 -63.7713196 29.7274255 -63.1875 32.8125 C-60.30601577 36.0109475 -58.02697364 37.07059553 -53.83203125 37.30859375 C-52.22123629 37.30991299 -50.61030274 37.28983989 -49 37.25 C-48.18080078 37.25708984 -47.36160156 37.26417969 -46.51757812 37.27148438 C-43.87429365 37.28207807 -43.87429365 37.28207807 -40.1875 36.8125 C-37.85358797 34.03135944 -37.85358797 34.03135944 -38.5625 31.125 C-38.76875 30.361875 -38.975 29.59875 -39.1875 28.8125 C-40.8375 28.4825 -42.4875 28.1525 -44.1875 27.8125 C-44.5175 28.4725 -44.8475 29.1325 -45.1875 29.8125 C-46.1775 30.1425 -47.1675 30.4725 -48.1875 30.8125 C-47.8575 28.8325 -47.5275 26.8525 -47.1875 24.8125 C-39.86723856 24.32448257 -39.86723856 24.32448257 -36.75 26.5625 C-35.1875 28.8125 -35.1875 28.8125 -34.75 30.9375 C-34.564375 31.55625 -34.37875 32.175 -34.1875 32.8125 C-28.23951831 35.87428393 -21.69103589 35.54459202 -15.1875 34.8125 C-12.42198707 33.72672406 -9.99209634 32.41533575 -7.41796875 30.94140625 C-3.6640764 29.04145023 -1.36996954 29.21500435 2.8125 29.8125 C5.0517835 30.68945073 7.19178908 31.68959616 9.35205078 32.74536133 C16.76812369 35.96183828 24.90598313 36.17639336 32.875 36.1875 C33.80376953 36.21199219 34.73253906 36.23648438 35.68945312 36.26171875 C41.84865505 36.28765223 47.73013631 35.59716043 52.8125 31.8125 C53.78679217 29.85837129 53.78679217 29.85837129 53.8125 27.8125 C52.8225 26.8225 52.8225 26.8225 51.8125 25.8125 C48.40857918 26.15289208 46.4570872 27.76507765 43.8125 29.8125 C35.55401282 32.56532906 25.85957406 31.40461015 17.90234375 28.16796875 C15.52843107 26.62825342 14.91389886 25.74475612 14.125 23.0625 C14.021875 21.99 13.91875 20.9175 13.8125 19.8125 C13.1525 19.8125 12.4925 19.8125 11.8125 19.8125 C11.5959375 18.0490625 11.5959375 18.0490625 11.375 16.25 C10.15429869 11.34103687 7.3229753 9.21618543 3.39453125 6.2578125 C-6.59111035 0.66827031 -21.39327849 0.11755618 -30.1875 7.8125 Z " fill="#000000" transform="translate(765.1875,63.1875)"/>
<path d="M0 0 C4.40938215 0.50392939 6.78843816 1.9620361 10 5 C13.03223017 9.4815334 11.9561392 14.42019697 11.6796875 19.58984375 C12.06385412 23.6798128 13.28507726 25.01206826 16 28 C19.36056427 34.85088005 20.93206311 42.39490538 20 50 C17.98286151 54.20237184 15.40056322 56.4974486 11.8125 59.3125 C8.62948648 61.96402703 7.45005073 63.60550296 7 67.75 C6.96038845 69.16611277 6.95609345 70.58401389 7 72 C7 72.99 7 73.98 7 75 C8.25702738 76.53898724 8.25702738 76.53898724 9.875 78.0625 C14.11951428 82.81876423 15.13104451 88.06211247 14.921875 94.34765625 C14.62236897 97.09811999 14.24428121 99.51143758 13 102 C13.7425 102.226875 14.485 102.45375 15.25 102.6875 C20.1417798 105.02221308 22.12343551 108.8122488 24.25 113.625 C27.45330125 123.03070925 28.13887742 135.63068181 23.9375 144.8125 C21.33110966 149.07953333 17.9724312 152.03818731 14 155 C13.01 155.99 13.01 155.99 12 157 C12.763125 157.680625 13.52625 158.36125 14.3125 159.0625 C19.45587202 164.68432523 20.33577206 169.69985477 20.10546875 177.05859375 C20.07066406 177.69925781 20.03585937 178.33992187 20 179 C20.928125 178.938125 21.85625 178.87625 22.8125 178.8125 C26 179 26 179 27.875 180.1875 C29.34781139 182.56036279 29.22223194 184.25913944 29 187 C27.68 187 26.36 187 25 187 C24.67 186.01 24.34 185.02 24 184 C21.89415562 183.19436362 21.89415562 183.19436362 19.4375 182.8125 C18.61121094 182.65394531 17.78492188 182.49539063 16.93359375 182.33203125 C16.29550781 182.22246094 15.65742187 182.11289062 15 182 C15.05220703 180.93072266 15.05220703 180.93072266 15.10546875 179.83984375 C15.28060893 173.64321749 14.86306968 169.49709379 12 164 C11.67 163.01 11.34 162.02 11 161 C8.98491642 160.26676204 8.98491642 160.26676204 7 160 C7 159.34 7 158.68 7 158 C6.34 158.33 5.68 158.66 5 159 C2.7927077 159.07092842 0.58332548 159.08415025 -1.625 159.0625 C-2.81351563 159.05347656 -4.00203125 159.04445313 -5.2265625 159.03515625 C-6.14179687 159.02355469 -7.05703125 159.01195312 -8 159 C-7.505 157.02 -7.505 157.02 -7 155 C-6.154375 154.90203125 -5.30875 154.8040625 -4.4375 154.703125 C3.85486531 153.61004048 11.11526012 152.5380457 16.875 146.0625 C22.16449971 138.43939748 21.85479924 129.95135732 21 121 C19.85391734 115.57933876 18.39469448 111.42956185 14.5 107.4375 C12.36237413 106.20836513 10.20966474 105.09078789 8 104 C8.16757813 103.32195312 8.33515625 102.64390625 8.5078125 101.9453125 C10.19288293 94.24518052 9.99093072 88.12463782 7.12890625 80.7578125 C6.75636719 80.17773438 6.38382813 79.59765625 6 79 C2.64541845 78.23477199 2.64541845 78.23477199 -1 78 C-2.66934283 77.68033861 -4.3373217 77.35268934 -6 77 C-6 76.01 -6 75.02 -6 74 C-3.36 73.01 -0.72 72.02 2 71 C2 68.36 2 65.72 2 63 C0.63875 62.38125 0.63875 62.38125 -0.75 61.75 C-6.08 58.88 -6.08 58.88 -8 56 C-8.59118772 51.96132435 -9.21224662 47.70093354 -6.75 44.24609375 C-3.52661357 41.95086993 0.13279122 41.89529218 4 42 C6.5625 43.0625 6.5625 43.0625 8 45 C8.25 48.1875 8.25 48.1875 8 51 C5.525 51.495 5.525 51.495 3 52 C3 50.35 3 48.7 3 47 C1.35 47 -0.3 47 -2 47 C-2.72256829 51.48133574 -2.72256829 51.48133574 -3 56 C0.56471391 57.18823797 3.2558336 57.26274852 7 57 C9.28484306 55.60042803 9.28484306 55.60042803 11 54 C11.66 54 12.32 54 13 54 C16.35765189 47.07484297 15.07692741 40.71302897 12.97265625 33.59765625 C11.51884226 29.71498034 10.15999765 27.72908888 7 25 C3.32075016 24.03161858 3.32075016 24.03161858 0 24 C0 22.68 0 21.36 0 20 C2.31 19.34 4.62 18.68 7 18 C7.44029149 11.8163779 7.44029149 11.8163779 6 6 C3.00384054 4.6954344 3.00384054 4.6954344 0 4 C0 2.68 0 1.36 0 0 Z " fill="#000000" transform="translate(1031,429)"/>
<path d="M0 0 C-0.3125 1.875 -0.3125 1.875 -1 4 C-1.99 4.66 -2.98 5.32 -4 6 C-3.814375 7.134375 -3.62875 8.26875 -3.4375 9.4375 C-3.293125 10.613125 -3.14875 11.78875 -3 13 C-4.52069039 14.52069039 -6.21702744 14.44553508 -8.3125 14.8125 C-12.33304275 15.68042669 -14.53170159 16.54438223 -17 20 C-19.36245185 25.18500667 -20.19341786 30.31175658 -20 36 C-17.53279101 40.11201499 -13.33635818 41.33216993 -9 43 C-9.2165625 43.556875 -9.433125 44.11375 -9.65625 44.6875 C-12.14381056 51.50525858 -12.94143715 56.52845052 -11 63.6875 C-8.68714806 67.51816103 -6.60918007 68.68160702 -2.8125 70.82421875 C-1 72 -1 72 0.5625 74.4375 C1.12268386 77.71857689 0.99764265 79.80754353 0 83 C-2.19029792 85.52726683 -4.00025739 87.50012869 -7 89 C-11.05142119 89.25860135 -12.54337669 89.30441554 -16 87 C-16.36328125 85.125 -16.36328125 85.125 -16.3125 83 C-16.30863281 82.29875 -16.30476563 81.5975 -16.30078125 80.875 C-16 79 -16 79 -14 77 C-10.875 77.375 -10.875 77.375 -8 78 C-8.33 79.32 -8.66 80.64 -9 82 C-9.66 82 -10.32 82 -11 82 C-11.33 82.99 -11.66 83.98 -12 85 C-7.1983843 83.52971148 -7.1983843 83.52971148 -3.9375 80.0625 C-4.02067055 77.31787189 -4.33068351 76.22575532 -6 74 C-8.26637851 72.47515547 -10.56632764 71.26190419 -13 70 C-13 69.34 -13 68.68 -13 68 C-17.76612691 71.17741794 -20.33949762 74.57686989 -22 80 C-23.24839681 88.39200075 -21.73323713 94.97347614 -17 102 C-14.79940403 104.68691553 -13.34408197 105.33494178 -9.9375 105.8125 C-7.79296875 106.265625 -7.79296875 106.265625 -6 107 C-4.75 110.0625 -4.75 110.0625 -4 113 C-1.96756452 113.96877057 -1.96756452 113.96877057 0 114 C-0.33 115.32 -0.66 116.64 -1 118 C-3.875 117.6875 -3.875 117.6875 -7 117 C-9 114 -9 114 -9 111 C-9.86625 110.938125 -10.7325 110.87625 -11.625 110.8125 C-17.08623478 109.49775829 -19.64283622 106.98926746 -22.7109375 102.4921875 C-27.10428805 94.75741541 -28.38056846 87.80885097 -27 79 C-25.33225673 73.90863743 -23.34695405 70.10749555 -19.1875 66.6875 C-15.97290774 62.73814379 -16.71049235 59.19269772 -17.01953125 54.25390625 C-16.99860049 50.7668409 -16.26189886 48.2302662 -15 45 C-15.8353125 44.9071875 -15.8353125 44.9071875 -16.6875 44.8125 C-20.48333226 43.47882921 -23.21170413 40.57659173 -25 37 C-25.47497195 27.81720895 -23.8453299 20.30666238 -18 13 C-14.55574504 10.31180101 -13.45974205 10 -9 10 C-8.9175 8.906875 -8.835 7.81375 -8.75 6.6875 C-8 3 -8 3 -6.1875 1.0625 C-4 0 -4 0 0 0 Z " fill="#000000" transform="translate(1059,211)"/>
<path d="M0 0 C6.74570328 3.90029346 12.07383075 9.45408317 16.875 15.5 C19.76127073 17.24417651 22.15835079 17.79986202 25.5 18.0625 C29.68055556 18.40277778 29.68055556 18.40277778 31.875 19.5 C32.22478036 22.64802321 32.18184342 24.07041921 30.3125 26.6875 C23.83050384 31.50744586 16.09202238 30.77324469 8.375 30.6875 C7.27285156 30.68685547 6.17070312 30.68621094 5.03515625 30.68554688 C-0.46256873 30.65584728 -5.68425504 30.34449222 -11.125 29.5 C-13.00082843 29.52826591 -14.87650086 29.58986695 -16.75 29.6875 C-24.40956925 29.74530807 -33.64544459 28.43943854 -39.375 22.875 C-42.0949329 19.1836625 -42.56796391 17.1068247 -42.125 12.5 C-39.99261578 8.61601445 -37.91637712 5.80001374 -34.125 3.5 C-31.06679392 3.06786218 -28.08542049 2.99881261 -25 2.90625 C-21.78746157 2.45230435 -20.56072364 1.55776652 -18.125 -0.5 C-12.34015612 -2.42828129 -5.61618011 -2.56513659 0 0 Z M-19.125 5.5 C-19.455 6.16 -19.785 6.82 -20.125 7.5 C-20.93324219 7.45359375 -21.74148438 7.4071875 -22.57421875 7.359375 C-29.17411453 7.06097927 -29.17411453 7.06097927 -35.3125 9.125 C-37.58751315 12.10605171 -38.27871119 13.73407593 -38.125 17.5 C-34.8876314 22.4716732 -30.55514301 23.69865919 -25.0390625 24.9921875 C-19.28370932 25.99513108 -13.69171462 26.84873138 -8.5 23.6875 C-7.324375 22.6046875 -7.324375 22.6046875 -6.125 21.5 C-6.125 20.51 -6.125 19.52 -6.125 18.5 C-9.095 18.005 -9.095 18.005 -12.125 17.5 C-12.455 18.16 -12.785 18.82 -13.125 19.5 C-14.115 19.83 -15.105 20.16 -16.125 20.5 C-16.125 18.52 -16.125 16.54 -16.125 14.5 C-14.52120659 14.44583812 -12.91688594 14.40713362 -11.3125 14.375 C-10.41917969 14.35179688 -9.52585937 14.32859375 -8.60546875 14.3046875 C-6.125 14.5 -6.125 14.5 -3.125 16.5 C-2.9375 19.9375 -2.9375 19.9375 -3.125 23.5 C-3.125 24.49 -3.125 25.48 -3.125 26.5 C0.54151247 26.58796382 4.20774918 26.64071247 7.875 26.6875 C9.41994141 26.72520508 9.41994141 26.72520508 10.99609375 26.76367188 C17.37614621 26.82462779 22.06041977 26.16268638 27.875 23.5 C27.875 23.17 27.875 22.84 27.875 22.5 C27.15054688 22.41363281 26.42609375 22.32726562 25.6796875 22.23828125 C17.02047236 20.97980865 13.03752232 18.07593705 7.4375 11.4375 C4.25044341 7.68385557 1.28197125 5.66028003 -3.125 3.5 C-3.785 3.17 -4.445 2.84 -5.125 2.5 C-10.50189567 1.95069042 -14.76579868 1.95814892 -19.125 5.5 Z " fill="#000000" transform="translate(291.125,71.5)"/>
<path d="M0 0 C2.375 0.25 2.375 0.25 5 1 C5.4228125 1.52851562 5.845625 2.05703125 6.28125 2.6015625 C8.00483126 4.32679758 8.00483126 4.32679758 10.8828125 3.8203125 C11.95273437 3.59085938 13.02265625 3.36140625 14.125 3.125 C16.0768862 2.71777194 18.03433637 2.3344562 20 2 C21 3 21 3 21.125 5.75 C21 9 21 9 20.1875 11.5 C19.89392057 15.41439238 22.55027506 17.12157319 25 20 C24.65625 22.18359375 24.65625 22.18359375 24 24 C23.20335937 23.979375 22.40671875 23.95875 21.5859375 23.9375 C15.23527847 23.91238864 15.23527847 23.91238864 9.8671875 26.84765625 C8.4102924 28.84296911 7.13805049 30.80875367 6 33 C3 32 3 32 1.3125 29.0625 C0 26 0 26 0 24 C-2.97 23.67 -5.94 23.34 -9 23 C-8.875 20.25 -8.875 20.25 -8 17 C-7.01 16.46375 -6.02 15.9275 -5 15.375 C-1.74256101 13.32122164 -1.74256101 13.32122164 -1.41796875 10.12109375 C-1.26633108 7.94419359 -1.16086284 5.76350318 -1.10546875 3.58203125 C-1 1 -1 1 0 0 Z " fill="#000000" transform="translate(389,1009)"/>
<path d="M0 0 C6.0316507 3.58160009 10.87536852 9.29923917 13 16 C13.125 18.8125 13.125 18.8125 13 21 C9.21286807 22.26237731 6.74348067 21.67558873 2.8125 21.0625 C1.54019531 20.86785156 0.26789063 20.67320312 -1.04296875 20.47265625 C-2.01878906 20.31667969 -2.99460937 20.16070313 -4 20 C-4.99296412 15.53557076 -5.0772418 11.55726628 -5 7 C-8.37462715 7.54723683 -10.08235 8.0549 -13 10 C-14.32 10 -15.64 10 -17 10 C-17.33 10.99 -17.66 11.98 -18 13 C-19.33333333 13.33333333 -20.66666667 13.66666667 -22 14 C-22.33 14.99 -22.66 15.98 -23 17 C-23.66 17 -24.32 17 -25 17 C-26.8484977 19.42672235 -28.4770431 21.96826182 -30.1484375 24.51953125 C-31.95666944 26.94195168 -33.40777702 28.46685645 -36 30 C-39.75 30.1875 -39.75 30.1875 -43 30 C-43.66 28.68 -44.32 27.36 -45 26 C-39.375 22 -39.375 22 -36 22 C-35.72800781 21.42765625 -35.45601562 20.8553125 -35.17578125 20.265625 C-28.58113106 7.55832563 -14.78334677 -2.5008663 0 0 Z " fill="#000000" transform="translate(1027,617)"/>
<path d="M0 0 C3.24924274 0.60451028 4.54788636 1.8570922 6.484375 4.4921875 C11.96304873 13.63516899 12.19021433 22.15246334 11.6875 32.5 C3.10493338 32.02681667 -5.29398877 31.39332809 -12.4375 26.25 C-14.85652647 22.70209451 -15.01398824 20.70892946 -14.3125 16.5 C-11.53356468 13.29353617 -8.40885593 12.96549499 -4.3125 12.5 C-4.33570313 11.80132813 -4.35890625 11.10265625 -4.3828125 10.3828125 C-4.40085938 9.47273438 -4.41890625 8.56265625 -4.4375 7.625 C-4.46070313 6.72007813 -4.48390625 5.81515625 -4.5078125 4.8828125 C-4.23523775 1.55740057 -3.22353582 0.69698072 0 0 Z " fill="#000000" transform="translate(193.3125,1113.5)"/>
<path d="M0 0 C2.5 0.125 2.5 0.125 3.5 1.125 C5.80639814 1.49822245 8.12058027 1.82391805 10.4375 2.125 C17.2826685 3.01633425 17.2826685 3.01633425 19.5 4.125 C19.17 5.445 18.84 6.765 18.5 8.125 C17.18 8.455 15.86 8.785 14.5 9.125 C14.60407917 12.52580577 14.60407917 12.52580577 15.5 16.125 C17.97933197 17.89648372 17.97933197 17.89648372 20.5 19.125 C20.5 20.115 20.5 21.105 20.5 22.125 C5.88163001 27.5825248 5.88163001 27.5825248 -2.5 25.3125 C-4.94697287 22.63612342 -4.82432497 21.67731983 -4.875 18.125 C-4.78158621 16.12327603 -4.6550529 14.12289479 -4.5 12.125 C-4.43167969 11.09117188 -4.36335937 10.05734375 -4.29296875 8.9921875 C-3.61427823 0.18071391 -3.61427823 0.18071391 0 0 Z " fill="#000000" transform="translate(176.5,1523.875)"/>
<path d="M0 0 C4.62246588 -0.83449826 8.83690403 -0.60577915 13 1.5625 C13.99 2.2740625 13.99 2.2740625 15 3 C15.66 2.67 16.32 2.34 17 2 C18.83128771 1.90391392 20.66619959 1.87017421 22.5 1.875 C23.4796875 1.87242187 24.459375 1.86984375 25.46875 1.8671875 C28 2 28 2 30 3 C30.54998918 8.63738908 29.11588996 11.4597032 26 16 C21.25981892 17.58006036 16.46530287 17.30847341 11.5 17.375 C9.91251953 17.43107422 9.91251953 17.43107422 8.29296875 17.48828125 C5.44561449 17.52084312 2.80558176 17.48896368 0 17 C-2.52362796 14.47195238 -2.92905681 13.1542649 -3.14453125 9.6484375 C-3.03496094 8.89820313 -2.92539062 8.14796875 -2.8125 7.375 C-2.71582031 6.61960937 -2.61914062 5.86421875 -2.51953125 5.0859375 C-2 3 -2 3 0 0 Z " fill="#FFFFFF" transform="translate(651,1015)"/>
<path d="M0 0 C2.89663659 2.26693299 4.61540062 3.87578643 5.8125 7.375 C5.874375 8.24125 5.93625 9.1075 6 10 C6.12375 11.155 6.2475 12.31 6.375 13.5 C6 17 6 17 3.6875 19.875 C-0.52419087 23.20517418 -3.74659279 23.27172796 -9 23 C-12.2333165 22.17287252 -13.81671761 21.16346808 -16.3125 18.9375 C-18.64204109 14.88237291 -18.92550243 11.5711772 -18 7 C-16.19999146 3.38466369 -13.74439177 1.37219589 -10.125 -0.4375 C-6.32058708 -1.12229433 -3.73866859 -1.01963689 0 0 Z " fill="#FFFFFF" transform="translate(623,1424)"/>
<path d="M0 0 C0.00386719 1.01320313 0.00386719 1.01320313 0.0078125 2.046875 C0.05071705 7.20541043 0.05071705 7.20541043 2.40234375 11.5546875 C4.21866453 12.77834208 4.21866453 12.77834208 7 14 C6.67 14.99 6.34 15.98 6 17 C4.0390625 17.88671875 4.0390625 17.88671875 1.625 18.6875 C-1.89901219 20.08028569 -1.89901219 20.08028569 -4.12109375 23 C-4.75270834 24.99832863 -5.37675208 26.99904615 -6 29 C-8.07421875 29.73828125 -8.07421875 29.73828125 -10 30 C-10.25652344 29.37351562 -10.51304687 28.74703125 -10.77734375 28.1015625 C-13.0244378 23.06797498 -13.0244378 23.06797498 -17.3359375 19.95703125 C-19.56940949 19.48849533 -21.72421804 19.15370205 -24 19 C-24 17.68 -24 16.36 -24 15 C-22.02 14.34 -20.04 13.68 -18 13 C-18.33 10.03 -18.66 7.06 -19 4 C-14.51620592 2.87905148 -13.21527063 3.56501425 -9 5 C-8.01 4.67 -7.02 4.34 -6 4 C-6 3.34 -6 2.68 -6 2 C-3 0 -3 0 0 0 Z " fill="#000000" transform="translate(204,908)"/>
<path d="M0 0 C5.77050962 0.80357637 10.84201369 0.84913014 16.50146484 -0.55029297 C23.79008016 -2.04348326 31.14133344 -1.79488426 38.54296875 -1.7421875 C40.0980918 -1.73844974 41.65321724 -1.73560638 43.20834351 -1.73361206 C47.26892792 -1.72603564 51.32936552 -1.70643984 55.38989258 -1.6842041 C59.54636653 -1.66361539 63.70286458 -1.6545827 67.859375 -1.64453125 C75.99095222 -1.62318728 84.12241089 -1.58912524 92.25390625 -1.546875 C92.25390625 -0.226875 92.25390625 1.093125 92.25390625 2.453125 C81.11235485 3.01824348 69.97424137 3.55105656 58.81640625 3.578125 C57.69335083 3.58489258 57.69335083 3.58489258 56.54760742 3.59179688 C53.04461476 3.58231545 49.64934965 3.42204324 46.17578125 2.95703125 C38.20638922 1.9330755 29.94058296 1.70192797 22.06640625 3.453125 C7.19004714 6.53402777 -8.83273507 4.23003582 -23.74609375 2.453125 C-23.74609375 3.113125 -23.74609375 3.773125 -23.74609375 4.453125 C-25.06609375 4.123125 -26.38609375 3.793125 -27.74609375 3.453125 C-27.41609375 2.133125 -27.08609375 0.813125 -26.74609375 -0.546875 C-18.06106846 -3.09529792 -8.75059184 -1.34476713 0 0 Z " fill="#000000" transform="translate(838.74609375,1462.546875)"/>
<path d="M0 0 C0.99 0 1.98 0 3 0 C3.64379961 7.72559526 2.34019981 12.97909596 -2.6484375 18.984375 C-6.62412342 23.18575488 -9.90539297 25.75057129 -15.859375 26.23046875 C-16.81328125 26.21628906 -17.7671875 26.20210937 -18.75 26.1875 C-19.71421875 26.18105469 -20.6784375 26.17460938 -21.671875 26.16796875 C-24 26 -24 26 -25 25 C-28.31133524 25.18244271 -31.59795449 25.52175166 -34.8984375 25.84375 C-38 26 -38 26 -41 25 C-40 22 -40 22 -37 20.375 C-34.15029924 19.23861626 -31.61458075 18.78995143 -28.5625 18.5625 C-23.66724336 18.14006669 -20.21704718 16.41433999 -16 14 C-15.22140625 13.59265625 -14.4428125 13.1853125 -13.640625 12.765625 C-8.37142571 9.9760489 -4.44958081 7.55126222 -1.4375 2.25 C-0.963125 1.5075 -0.48875 0.765 0 0 Z " fill="#000000" transform="translate(1037,644)"/>
<path d="M0 0 C2.40571208 5.31382187 2.86638355 10.23626941 2 16 C-1.43509217 19.64978543 -6.18468324 19.7706992 -11 20 C-13.4375 19.1875 -13.4375 19.1875 -15 18 C-16.49341703 15.01316593 -16.13175178 12.25600226 -16.125 8.9375 C-16.12757813 7.66777344 -16.13015625 6.39804688 -16.1328125 5.08984375 C-16 2 -16 2 -15 1 C-9.9301448 0.06880211 -5.12881696 -0.08997924 0 0 Z " fill="#FFFFFF" transform="translate(633,1342)"/>
<path d="M0 0 C4.66769114 1.13700169 8.12848296 2.08490711 11.5 5.625 C13.88229391 10.98516129 14.52968768 15.49602188 13.3125 21.25 C8.60409279 26.84918695 0.95808643 28.60838271 -6 30 C-6.33 33.63 -6.66 37.26 -7 41 C-9.475 41.495 -9.475 41.495 -12 42 C-13.8125 40.5625 -13.8125 40.5625 -15 39 C-13.515 38.505 -13.515 38.505 -12 38 C-12.33 33.38 -12.66 28.76 -13 24 C-9.8354704 23.2088676 -7.26900146 22.83250857 -4.0625 22.625 C1.52634127 22.13046281 1.52634127 22.13046281 6 19 C7.30244507 15.67152928 7.97146689 12.57805187 8 9 C6.27269597 5.74469625 5.21065595 4.43718131 1.75 3.1875 C1.1725 3.125625 0.595 3.06375 0 3 C0 2.01 0 1.02 0 0 Z " fill="#000000" transform="translate(409,657)"/>
<path d="M0 0 C3.9409736 1.92242614 6.64983595 4.25210071 8.5625 8.25 C8.64748153 13.79079558 7.06640791 18.00431772 3.5625 22.25 C-1.05532818 21.66648358 -5.26619329 21.05287254 -8.6875 17.6875 C-10.57908796 13.97188079 -10.65718916 13.46229022 -9.5625 9.6875 C-7.64395654 5.11548716 -5.37328543 0.5511062 0 0 Z " fill="#FFFFFF" transform="translate(608.4375,1381.75)"/>
<path d="M0 0 C4 1 4 1 5 2 C5.41130221 5.77754183 5.51685698 9.57989929 5.6875 13.375 C5.74744141 14.44234375 5.80738281 15.5096875 5.86914062 16.609375 C5.91619141 17.63289062 5.96324219 18.65640625 6.01171875 19.7109375 C6.05772217 20.65243652 6.10372559 21.59393555 6.15112305 22.56396484 C6 25 6 25 4 28 C5.26244635 29.65227538 6.53525235 31.29663951 7.8125 32.9375 C8.52019531 33.85402344 9.22789062 34.77054688 9.95703125 35.71484375 C11.86661858 38.23136513 11.86661858 38.23136513 15 39 C15.33 37.68 15.66 36.36 16 35 C16.99 35.66 17.98 36.32 19 37 C19.1875 40.625 19.1875 40.625 19 44 C17.328125 44.74609375 17.328125 44.74609375 15 45 C12.421875 43.34765625 12.421875 43.34765625 9.75 41.0625 C8.85796875 40.31097656 7.9659375 39.55945313 7.046875 38.78515625 C6.37140625 38.19605469 5.6959375 37.60695313 5 37 C5 39.31 5 41.62 5 44 C4.01 44.495 4.01 44.495 3 45 C0.96855359 44.06553465 -1.03533587 43.06775224 -3 42 C-3 41.01 -3 40.02 -3 39 C-2.01 39 -1.02 39 0 39 C0 26.13 0 13.26 0 0 Z " fill="#000000" transform="translate(310,655)"/>
<path d="M0 0 C3.63525215 2.60789828 4.83397068 4.0702358 5.625 8.5 C5 12 5 12 3.0625 14.9375 C-1.06222615 17.7153768 -4.16613221 17.90744088 -9 17 C-12.125 15.5625 -12.125 15.5625 -14 13 C-14.49361576 9.71926107 -14.21832195 7.08830447 -13 4 C-9.50729076 0.41212157 -4.88941285 -0.95662425 0 0 Z " fill="#FFFFFF" transform="translate(585,986)"/>
<path d="M0 0 C1.65 0 3.3 0 5 0 C8.31467722 5.74544052 8.616798 12.5061645 8 19 C6.63994506 23.32017452 5.72594519 24.59514595 1.75 26.8125 C-1.86442766 27.95706876 -5.23381266 28.61569517 -9 29 C-8.938125 30.3921875 -8.938125 30.3921875 -8.875 31.8125 C-9 35 -9 35 -11 38 C-14.125 38.1875 -14.125 38.1875 -17 38 C-17.495 36.515 -17.495 36.515 -18 35 C-16.68 35 -15.36 35 -14 35 C-14.01160156 34.21753906 -14.02320313 33.43507813 -14.03515625 32.62890625 C-14.04417969 31.61699219 -14.05320312 30.60507812 -14.0625 29.5625 C-14.07410156 28.55316406 -14.08570313 27.54382813 -14.09765625 26.50390625 C-14 24 -14 24 -13 23 C-11.43886303 22.89416021 -9.87585197 22.81543177 -8.3125 22.75 C-2.89455204 22.2377012 -0.5340668 21.16838648 3 17 C4.35832581 12.11002708 3.90973368 7.95299446 3 3 C2.34 3 1.68 3 1 3 C0.67 2.01 0.34 1.02 0 0 Z " fill="#000000" transform="translate(590,672)"/>
<path d="M0 0 C1.32 1.32 2.64 2.64 4 4 C2.04199672 12.5705582 -1.20384241 20.09799828 -5 28 C-5.7356666 29.68467651 -6.46570491 31.37183382 -7.1875 33.0625 C-9.94263427 39.18002262 -9.94263427 39.18002262 -12 41 C-14.9375 41.5 -14.9375 41.5 -18 41 C-20.375 39 -20.375 39 -22 37 C-20.948125 36.87625 -19.89625 36.7525 -18.8125 36.625 C-16.24453073 35.87846748 -15.23874801 35.35174325 -13.72070312 33.11523438 C-10.43942533 26.13754311 -7.50415536 19.05225513 -4.6875 11.875 C-4.0059082 10.15410156 -4.0059082 10.15410156 -3.31054688 8.3984375 C-2.20303334 5.60050856 -1.09960929 2.80104259 0 0 Z " fill="#000000" transform="translate(566,670)"/>
<path d="M0 0 C0.66 0 1.32 0 2 0 C2.33 0.66 2.66 1.32 3 2 C4.97888961 2.72693904 6.97954558 3.39816251 9 4 C8.67 5.98 8.34 7.96 8 10 C9.32 10.33 10.64 10.66 12 11 C12.33 12.65 12.66 14.3 13 16 C12.34 16.33 11.68 16.66 11 17 C11.20625 18.11375 11.4125 19.2275 11.625 20.375 C11.74875 21.57125 11.8725 22.7675 12 24 C11.34 24.66 10.68 25.32 10 26 C6.875 25.625 6.875 25.625 4 25 C4 26.32 4 27.64 4 29 C2.68 29 1.36 29 0 29 C0 26.03 0 23.06 0 20 C1.65 19.67 3.3 19.34 5 19 C4.81870185 15.56206661 4.81870185 15.56206661 4 12 C2.68 11.34 1.36 10.68 0 10 C0 6.7 0 3.4 0 0 Z " fill="#000000" transform="translate(174,1328)"/>
<path d="M0 0 C1.32 0 2.64 0 4 0 C5.82099888 3.99907888 7.63552747 8.00101302 9.44433594 12.00561523 C10.05946376 13.36512517 10.67629654 14.7238651 11.29492188 16.08178711 C12.18818587 18.04336604 13.07510795 20.00771076 13.9609375 21.97265625 C14.49509277 23.15093994 15.02924805 24.32922363 15.57958984 25.54321289 C19.36828983 34.76359843 19.36828983 34.76359843 18.125 38.9375 C17.568125 39.9584375 17.568125 39.9584375 17 41 C15.02 40.67 13.04 40.34 11 40 C10.505 38.515 10.505 38.515 10 37 C11.32 37 12.64 37 14 37 C12.49465134 32.95912625 10.98281951 28.92075552 9.46508789 24.88452148 C8.95030331 23.51278626 8.43725672 22.14039743 7.92602539 20.76733398 C7.18838657 18.7871293 6.44440752 16.80940518 5.69921875 14.83203125 C5.25408936 13.64327393 4.80895996 12.4545166 4.3503418 11.22973633 C3.09729236 8.00503741 3.09729236 8.00503741 1.33129883 5.26049805 C0 3 0 3 0 0 Z " fill="#000000" transform="translate(351,658)"/>
<path d="M0 0 C3 1 3 1 5 4 C8.05429073 5.21284876 8.05429073 5.21284876 11 6 C11.6875 8.3125 11.6875 8.3125 12 11 C10.75 12.8125 10.75 12.8125 9 14 C8.01 14 7.02 14 6 14 C6.33 18.62 6.66 23.24 7 28 C2 27 2 27 0 25 C-0.14497985 22.41935871 -0.18677545 19.95056116 -0.125 17.375 C-0.11597656 16.66859375 -0.10695313 15.9621875 -0.09765625 15.234375 C-0.07407603 13.48943902 -0.03820461 11.74467705 0 10 C1.4540625 9.814375 1.4540625 9.814375 2.9375 9.625 C3.948125 9.41875 4.95875 9.2125 6 9 C6.33 8.34 6.66 7.68 7 7 C5.5459375 7.0309375 5.5459375 7.0309375 4.0625 7.0625 C1 7 1 7 0 6 C-0.04080783 4.00041636 -0.04254356 1.99954746 0 0 Z " fill="#000000" transform="translate(376,664)"/>
<path d="M0 0 C0.99 0.33 1.98 0.66 3 1 C3.33 9.58 3.66 18.16 4 27 C1.03 27 -1.94 27 -5 27 C-5.66 27.33 -6.32 27.66 -7 28 C-13.26407421 28.52200618 -16.09822453 27.92142038 -21 24 C-20.67 23.34 -20.34 22.68 -20 22 C-19.01 22.33 -18.02 22.66 -17 23 C-11.85056722 23.4017339 -11.85056722 23.4017339 -7 22 C-5.02 22 -3.04 22 -1 22 C-0.67 14.74 -0.34 7.48 0 0 Z " fill="#000000" transform="translate(274,671)"/>
<path d="M0 0 C1.9375 1.25 1.9375 1.25 3 3 C3.1875 5.6875 3.1875 5.6875 3 8 C2.34 6.68 1.68 5.36 1 4 C-0.98 4.33 -2.96 4.66 -5 5 C-5.08333357 9.8333472 -4.95261487 14.23692563 -4 19 C-5.32 19.33 -6.64 19.66 -8 20 C-8 19.34 -8 18.68 -8 18 C-8.99 17.67 -9.98 17.34 -11 17 C-11 11.72 -11 6.44 -11 1 C-6.43601897 -1.28199051 -4.85155613 -1.14673145 0 0 Z " fill="#000000" transform="translate(587,674)"/>
<path d="M0 0 C2.0625 1.6875 2.0625 1.6875 3 4 C2.85624476 6.94698241 2.43891836 8.4656646 0.5625 10.75 C-2.61001729 13.28801383 -5.02252159 13.08646692 -9 13 C-11.09065618 9.60268371 -11.42098999 6.95730595 -11 3 C-8.79367474 -1.13685986 -4.13954137 -0.77455036 0 0 Z " fill="#FFFFFF" transform="translate(157,601)"/>
<path d="M0 0 C0.75 2.625 0.75 2.625 1 5 C0.34 4.67 -0.32 4.34 -1 4 C-3.2072923 3.92907158 -5.41667452 3.91584975 -7.625 3.9375 C-9.40777344 3.95103516 -9.40777344 3.95103516 -11.2265625 3.96484375 C-12.59941406 3.98224609 -12.59941406 3.98224609 -14 4 C-15.32 6.97 -16.64 9.94 -18 13 C-20.9375 12.1875 -20.9375 12.1875 -24 11 C-24.33 10.01 -24.66 9.02 -25 8 C-24.401875 7.443125 -23.80375 6.88625 -23.1875 6.3125 C-20.89713572 4.13569206 -20.89713572 4.13569206 -19.796875 1.4140625 C-18 -1 -18 -1 -14.78515625 -1.77734375 C-12.94244141 -1.85662109 -12.94244141 -1.85662109 -11.0625 -1.9375 C-9.22365234 -2.04384766 -9.22365234 -2.04384766 -7.34765625 -2.15234375 C-4.19421071 -2.00883806 -2.52837287 -1.83937588 0 0 Z " fill="#000000" transform="translate(358,686)"/>
<path d="M0 0 C0.66 0.33 1.32 0.66 2 1 C1.5 3.3125 1.5 3.3125 0 6 C-2.5690412 7.34219295 -5.21813439 8.20425705 -8 9 C-8.0270043 10.45823212 -8.04639787 11.91660675 -8.0625 13.375 C-8.07410156 14.18710937 -8.08570313 14.99921875 -8.09765625 15.8359375 C-8.14466334 18.04937142 -8.14466334 18.04937142 -7 20 C-9.3125 19.9375 -9.3125 19.9375 -12 19 C-14.36566926 15.0572179 -15 12.91691603 -15 8.3125 C-13.77019279 4.2387636 -12.72552453 3.02474159 -9 1 C-3.01449275 0.49275362 -3.01449275 0.49275362 0 2 C0 1.34 0 0.68 0 0 Z " fill="#000000" transform="translate(299,672)"/>
<path d="M0 0 C2.475 0.99 2.475 0.99 5 2 C4.851456 7.79321599 2.04410421 10.77759617 -1.6015625 14.94921875 C-2.06304687 15.62597656 -2.52453125 16.30273438 -3 17 C-2.67 17.99 -2.34 18.98 -2 20 C-4.62187494 18.95125002 -5.79371361 18.35068687 -7.25 15.875 C-7.4975 15.25625 -7.745 14.6375 -8 14 C-8.66 14 -9.32 14 -10 14 C-9.10517703 7.95994492 -4.18302702 4.06683182 0 0 Z " fill="#000000" transform="translate(327,670)"/>
<path d="M0 0 C-0.3125 1.875 -0.3125 1.875 -1 4 C-1.99 4.66 -2.98 5.32 -4 6 C-4.58640872 8.1515634 -4.58640872 8.1515634 -4.6875 10.625 C-4.75195312 11.511875 -4.81640625 12.39875 -4.8828125 13.3125 C-5.03855221 16.8841306 -5.06619484 20.42547874 -5 24 C-6.65 24.33 -8.3 24.66 -10 25 C-12 22 -12 22 -11.640625 19.72265625 C-11.42921875 18.82417969 -11.2178125 17.92570313 -11 17 C-10.85397967 13.68614981 -10.7485497 10.37477448 -10.671875 7.05859375 C-10 4 -10 4 -7.62890625 1.61328125 C-4.75636768 -0.14950988 -3.30208906 -0.37738161 0 0 Z " fill="#000000" transform="translate(439,673)"/>
<path d="M0 0 C0.99 0.33 1.98 0.66 3 1 C4.45450856 6.4544071 5.56177401 13.00074541 2.87109375 18.16796875 C0.56342759 21.09020918 -1.36813393 22.7332121 -4.8125 24.1875 C-9.38816946 23.91834297 -12.96927217 22.0870213 -17 20 C-17 19.67 -17 19.34 -17 19 C-16.11248047 19.05220703 -16.11248047 19.05220703 -15.20703125 19.10546875 C-10.27876563 19.27430004 -6.98345584 19.25919114 -3 16 C-0.65229357 12.47844036 -0.62330386 10.49228157 -0.375 6.3125 C-0.30023438 5.13300781 -0.22546875 3.95351563 -0.1484375 2.73828125 C-0.09945313 1.83464844 -0.05046875 0.93101562 0 0 Z " fill="#000000" transform="translate(466,675)"/>
<path d="M0 0 C0.99 0 1.98 0 3 0 C2.96519531 0.86882812 2.93039062 1.73765625 2.89453125 2.6328125 C2.48695159 11.31060109 2.48695159 11.31060109 6 19 C9.70148628 22.70148628 13.03634848 23.83208199 18 25 C18 26.32 18 27.64 18 29 C10.1847987 27.9721504 5.48368314 25.49766585 0.64453125 19.25 C-2.9115637 13.42431544 -2.22092331 7.52202625 -1 1 C-0.67 0.67 -0.34 0.34 0 0 Z " fill="#000000" transform="translate(635,1147)"/>
<path d="M0 0 C0.66 0.33 1.32 0.66 2 1 C2 0.34 2 -0.32 2 -1 C2.99 -1 3.98 -1 5 -1 C4.67 0.32 4.34 1.64 4 3 C-0.75 4 -0.75 4 -3 4 C-4.87633173 7.9751534 -5.24376487 11.12157045 -5.1875 15.5 C-5.18105469 16.6034375 -5.17460937 17.706875 -5.16796875 18.84375 C-5.01744156 21.67226083 -4.64204162 24.24692555 -4 27 C-5.875 26.6875 -5.875 26.6875 -8 26 C-11.14225498 21.28661753 -10.54988672 16.51850601 -10 11 C-9.00888963 7.17113494 -7.81090157 3.52266618 -6 0 C-3.4832097 -1.25839515 -2.62168527 -0.81927665 0 0 Z " fill="#000000" transform="translate(225,1427)"/>
<path d="M0 0 C2 2 2 2 2.3125 4.9375 C2 8 2 8 1 9.875 C-2.21849915 11.68540577 -5.40757681 11.67217898 -9 11 C-11.0625 9.3125 -11.0625 9.3125 -12 7 C-12.0625 4.4375 -12.0625 4.4375 -11 2 C-7.10596121 -0.65502645 -4.50300944 -1.62608674 0 0 Z " fill="#FFFFFF" transform="translate(618,993)"/>
<path d="M0 0 C3 1 3 1 4.25 3 C5.49747065 7.98988259 5.31093883 12.48112468 2.90625 17.1015625 C0.21143984 20.73955622 -2.12200824 22.43700137 -6.625 23.1875 C-10.02959959 23.33677418 -10.73808602 23.19803252 -13.5625 21.0625 C-14.036875 20.381875 -14.51125 19.70125 -15 19 C-14.32453125 18.97421875 -13.6490625 18.9484375 -12.953125 18.921875 C-11.61507813 18.83679688 -11.61507813 18.83679688 -10.25 18.75 C-9.36828125 18.70359375 -8.4865625 18.6571875 -7.578125 18.609375 C-4.18950659 17.80842883 -3.0227238 16.83181332 -1 14 C-0.30220618 10.50727748 -0.30220618 10.50727748 -0.25 6.75 C-0.19328125 5.48671875 -0.1365625 4.2234375 -0.078125 2.921875 C-0.05234375 1.95765625 -0.0265625 0.9934375 0 0 Z " fill="#000000" transform="translate(516,676)"/>
<path d="M0 0 C1.32 0.66 2.64 1.32 4 2 C4.042721 3.66611905 4.04063832 5.33382885 4 7 C1.37550198 9.62449802 -6.01388542 8.22985959 -9.78295898 8.24023438 C-11.92536161 8.24994498 -14.06680697 8.28095753 -16.20898438 8.3125 C-17.56509845 8.31902936 -18.92121941 8.3242801 -20.27734375 8.328125 C-22.13734009 8.34214355 -22.13734009 8.34214355 -24.03491211 8.35644531 C-25.01339111 8.23881836 -25.99187012 8.12119141 -27 8 C-27.66 7.01 -28.32 6.02 -29 5 C-28 4 -28 4 -25.31616211 3.88647461 C-24.14835205 3.89171143 -22.98054199 3.89694824 -21.77734375 3.90234375 C-20.51728516 3.90556641 -19.25722656 3.90878906 -17.95898438 3.91210938 C-16.61848891 3.92046597 -15.27799412 3.92893093 -13.9375 3.9375 C-12.59310058 3.9425134 -11.2486994 3.94707658 -9.90429688 3.95117188 C-6.60282059 3.96300512 -3.30143197 3.97949029 0 4 C0 2.68 0 1.36 0 0 Z " fill="#000000" transform="translate(231,1484)"/>
<path d="M0 0 C0.33 0.99 0.66 1.98 1 3 C-3.94261817 4.15327757 -8.95661339 4.53972977 -14 5 C-14.061875 5.721875 -14.12375 6.44375 -14.1875 7.1875 C-15.2859871 10.98995534 -16.89432732 12.58447681 -20 15 C-24.14224306 15.57991403 -25.48175489 15.34549674 -29 13 C-28.67 12.01 -28.34 11.02 -28 10 C-27.0925 10.0825 -26.185 10.165 -25.25 10.25 C-21.97104627 10.29651368 -21.97104627 10.29651368 -19.8125 8.3125 C-17.88291863 6.07630991 -17.88291863 6.07630991 -16.9375 3.3125 C-14.46904785 0.36628292 -13.31110726 0.53551394 -9.5625 0.1875 C-6.36680667 0.02662836 -3.20098106 0 0 0 Z " fill="#000000" transform="translate(216,1478)"/>
<path d="M0 0 C-0.875 4.875 -0.875 4.875 -2 6 C-4.34987262 6.23527773 -6.70556039 6.41386417 -9.0625 6.5625 C-10.35285156 6.64628906 -11.64320313 6.73007813 -12.97265625 6.81640625 C-13.97167969 6.87699219 -14.97070312 6.93757813 -16 7 C-16 7.66 -16 8.32 -16 9 C-15.01 9.33 -14.02 9.66 -13 10 C-11.8125 13.0625 -11.8125 13.0625 -11 16 C-10.34 16 -9.68 16 -9 16 C-9.33 17.32 -9.66 18.64 -10 20 C-12.71185401 19.64653185 -13.74570831 19.31786462 -15.484375 17.14453125 C-15.90203125 16.37496094 -16.3196875 15.60539062 -16.75 14.8125 C-17.17796875 14.05582031 -17.6059375 13.29914063 -18.046875 12.51953125 C-19.17159719 9.54639267 -19.16427404 7.15314901 -19 4 C-18.09636719 3.87882812 -17.19273437 3.75765625 -16.26171875 3.6328125 C-15.08222656 3.46523437 -13.90273437 3.29765625 -12.6875 3.125 C-11.51574219 2.96257812 -10.34398437 2.80015625 -9.13671875 2.6328125 C-5.50358371 1.89985126 -3.72343351 0 0 0 Z " fill="#000000" transform="translate(235,1465)"/>
<path d="M0 0 C2.94730612 0.59817638 5.48672689 1.0625 8.5 1.0625 C9.0625 3 9.0625 3 9.5 5.0625 C9.17 5.3925 8.84 5.7225 8.5 6.0625 C6.14305046 5.97218426 3.78846418 5.81561872 1.4375 5.625 C0.14714844 5.52316406 -1.14320313 5.42132812 -2.47265625 5.31640625 C-3.97119141 5.19072266 -3.97119141 5.19072266 -5.5 5.0625 C-6.43423645 8.07281744 -6.54449911 8.92900268 -5.5 12.0625 C-8.73060419 11.50549928 -10.5658223 10.77034878 -12.5 8.0625 C-12.9375 5.5625 -12.9375 5.5625 -12.5 3.0625 C-8.49087711 -0.80837728 -5.27600946 -1.08498582 0 0 Z " fill="#000000" transform="translate(216.5,660.9375)"/>
<path d="M0 0 C0.66 0 1.32 0 2 0 C3.23534045 3.70602135 3.45528745 6.09753614 3 10 C0.61307623 13.82209946 -1.68510932 16.56170311 -6 18 C-12.46501134 18.7778416 -17.61752086 17.76224307 -23 14 C-23.33 13.34 -23.66 12.68 -24 12 C-23.16597656 12.10699219 -22.33195313 12.21398437 -21.47265625 12.32421875 C-14.5480829 13.06188808 -8.23141503 13.5934018 -2 10 C0.4294516 6.3558226 0.16179575 4.28758728 0 0 Z " fill="#000000" transform="translate(223,682)"/>
<path d="M0 0 C4 2 4 2 4.8984375 3.83984375 C5.05570313 4.53207031 5.21296875 5.22429688 5.375 5.9375 C5.54773438 6.62714844 5.72046875 7.31679688 5.8984375 8.02734375 C6 10 6 10 4 13 C1.37302936 13.22137393 -1.00893964 13.28162025 -3.625 13.1875 C-4.33140625 13.17396484 -5.0378125 13.16042969 -5.765625 13.14648438 C-7.51074128 13.1111104 -9.25546608 13.05730221 -11 13 C-10.67 14.98 -10.34 16.96 -10 19 C-12.46800047 17.84826645 -14.04783565 16.95216435 -16 15 C-16 13.35 -16 11.7 -16 10 C-10.06 9.67 -4.12 9.34 2 9 C1.34 6.03 0.68 3.06 0 0 Z " fill="#000000" transform="translate(620,673)"/>
<path d="M0 0 C2.5 1.75 2.5 1.75 4 4 C3.75 6.25 3.75 6.25 3 8 C2.443125 7.319375 1.88625 6.63875 1.3125 5.9375 C-0.83348856 3.69479404 -0.83348856 3.69479404 -3.625 4.125 C-6.14405125 4.86467913 -6.14405125 4.86467913 -8 7 C-8.50467268 12.43156222 -8.50467268 12.43156222 -6.6875 17.375 C-4.89201658 19.20024334 -4.89201658 19.20024334 -2 21 C-7.34081512 21.48552865 -7.34081512 21.48552865 -10.1796875 19.39453125 C-12.5679094 16.25294322 -12.47279223 14.34474413 -12.375 10.4375 C-12.36210937 9.30183594 -12.34921875 8.16617188 -12.3359375 6.99609375 C-12 4 -12 4 -10 1 C-6.40735548 -0.19754817 -3.77282526 -0.33094958 0 0 Z " fill="#000000" transform="translate(509,673)"/>
<path d="M0 0 C0.66 0 1.32 0 2 0 C3.28578682 6.42893409 2.95939007 11.08121985 0 17 C-1.77681799 19.57071539 -3.63259224 21.94912587 -6 24 C-6.66 24 -7.32 24 -8 24 C-8 24.66 -8 25.32 -8 26 C-10.75078884 26.91692961 -12.35948913 27.10886083 -15.1875 27.0625 C-17.0746875 27.0315625 -17.0746875 27.0315625 -19 27 C-19.33 26.01 -19.66 25.02 -20 24 C-19.00419922 23.85304688 -19.00419922 23.85304688 -17.98828125 23.703125 C-10.65818425 22.5218288 -10.65818425 22.5218288 -5 18 C-1.98091677 12.29064459 -0.59010276 7.42172344 -1 1 C-0.67 0.67 -0.34 0.34 0 0 Z " fill="#000000" transform="translate(208,1433)"/>
<path d="M0 0 C0.99 0 1.98 0 3 0 C2.25 4.75 2.25 4.75 0 7 C-2.625 7.125 -2.625 7.125 -5 7 C-4.88658363 9.31309705 -4.75896193 11.62550185 -4.625 13.9375 C-4.55539062 15.22527344 -4.48578125 16.51304687 -4.4140625 17.83984375 C-4.27742188 18.88269531 -4.14078125 19.92554688 -4 21 C-3.34 21.33 -2.68 21.66 -2 22 C-3.98 21.67 -5.96 21.34 -8 21 C-8.36076001 18.02149379 -8.71390416 15.04243216 -9.0625 12.0625 C-9.16626953 11.21236328 -9.27003906 10.36222656 -9.37695312 9.48632812 C-9.47041016 8.67744141 -9.56386719 7.86855469 -9.66015625 7.03515625 C-9.74918213 6.2862915 -9.83820801 5.53742676 -9.92993164 4.76586914 C-9.9530542 4.18313232 -9.97617676 3.60039551 -10 3 C-9 2 -9 2 -6.93359375 1.90234375 C-5.69802734 1.91974609 -5.69802734 1.91974609 -4.4375 1.9375 C-3.61121094 1.94652344 -2.78492188 1.95554687 -1.93359375 1.96484375 C-1.29550781 1.97644531 -0.65742188 1.98804688 0 2 C0 1.34 0 0.68 0 0 Z " fill="#000000" transform="translate(489,671)"/>
<path d="M0 0 C1.92578125 0.59375 1.92578125 0.59375 4 2 C4.79296875 4.96875 4.79296875 4.96875 5.1875 8.5 C5.58353191 12.90053763 5.58353191 12.90053763 7 17 C10.02934491 17.65772428 10.02934491 17.65772428 13 18 C11.4375 20.0625 11.4375 20.0625 9 22 C5.375 22 5.375 22 2 21 C-0.9038227 17.34193764 -0.22039333 12.67478308 -0.125 8.25 C-0.11597656 7.45722656 -0.10695312 6.66445313 -0.09765625 5.84765625 C-0.07417012 3.89830719 -0.03830137 1.94911425 0 0 Z " fill="#000000" transform="translate(255,671)"/>
<path d="M0 0 C6.87027201 0.24982807 11.92070467 2.23684338 17 7 C18.2578125 9.703125 18.2578125 9.703125 19 12 C20.98 11.67 22.96 11.34 25 11 C25.33 11.66 25.66 12.32 26 13 C23.69 14.32 21.38 15.64 19 17 C18.55011719 16.40832031 18.10023438 15.81664062 17.63671875 15.20703125 C12.51441524 8.91450209 7.59025117 5.77658085 0 3 C0 2.01 0 1.02 0 0 Z " fill="#000000" transform="translate(575,791)"/>
<path d="M0 0 C3.83564288 0.01648557 5.0367901 0.17604566 8.375 2.3125 C8.99375 2.9725 9.6125 3.6325 10.25 4.3125 C9.92 4.9725 9.59 5.6325 9.25 6.3125 C8.92 5.9825 8.59 5.6525 8.25 5.3125 C6.56816052 5.07962992 4.8787584 4.89985834 3.1875 4.75 C1.558125 4.605625 -0.07125 4.46125 -1.75 4.3125 C-1.42 8.6025 -1.09 12.8925 -0.75 17.3125 C-2.4 16.9825 -4.05 16.6525 -5.75 16.3125 C-5.77685095 13.83326199 -5.79676547 11.3543116 -5.8125 8.875 C-5.82506836 7.81442383 -5.82506836 7.81442383 -5.83789062 6.73242188 C-5.84653588 4.92556441 -5.80220011 3.11862397 -5.75 1.3125 C-4.10962605 -0.32787395 -2.25523159 0.06338669 0 0 Z " fill="#000000" transform="translate(402.75,660.6875)"/>
<path d="M0 0 C0 1.32 0 2.64 0 4 C-3.38361581 5.08243634 -6.11080195 4.93802776 -9.625 4.5625 C-15.10737063 4.03716227 -20.49649054 3.89041685 -26 4 C-26 3.01 -26 2.02 -26 1 C-17.21832675 -1.55428477 -8.96758211 -0.8233264 0 0 Z " fill="#000000" transform="translate(979,1461)"/>
<path d="M0 0 C0.33 0 0.66 0 1 0 C1 1.65 1 3.3 1 5 C-0.98 5.33 -2.96 5.66 -5 6 C-4.85936865 8.29199177 -4.71234057 10.58359186 -4.5625 12.875 C-4.48128906 14.15117188 -4.40007812 15.42734375 -4.31640625 16.7421875 C-4.20793973 19.88300152 -4.20793973 19.88300152 -3 22 C-4.875 21.6875 -4.875 21.6875 -7 21 C-9.30447608 17.54328588 -9.4361206 15.59889563 -9.75 11.5 C-9.84796875 10.3553125 -9.9459375 9.210625 -10.046875 8.03125 C-10 5 -10 5 -8 2 C-6.0546875 1.70703125 -6.0546875 1.70703125 -3.875 1.8125 C-2.59625 1.874375 -1.3175 1.93625 0 2 C0 1.34 0 0.68 0 0 Z " fill="#000000" transform="translate(246,671)"/>
<path d="M0 0 C0.5775 0.20625 1.155 0.4125 1.75 0.625 C0.75 3.625 0.75 3.625 -1.5 5.3125 C-8.54131397 7.77695989 -16.4392738 7.80841206 -23.25 4.625 C-23.25 3.635 -23.25 2.645 -23.25 1.625 C-21.47882813 1.65980469 -21.47882813 1.65980469 -19.671875 1.6953125 C-18.11458967 1.71407497 -16.55729748 1.73227466 -15 1.75 C-13.83404297 1.77513672 -13.83404297 1.77513672 -12.64453125 1.80078125 C-8.29393857 1.8379658 -3.7859594 -0.63099323 0 0 Z " fill="#000000" transform="translate(1057.25,1459.375)"/>
<path d="M0 0 C5.33333333 -0.35555556 5.33333333 -0.35555556 7.875 1 C9.68743692 4.22211008 9.64282389 7.45410047 9 11 C7.20636089 13.8100346 5.98119065 15.50940468 3 17 C1.00039988 17.039992 -1.00047242 17.04346799 -3 17 C-2.875 15.125 -2.875 15.125 -2 13 C1.0625 11.75 1.0625 11.75 4 11 C3.73606499 7.56769552 3.73606499 7.56769552 3 4 C2.01 3.34 1.02 2.68 0 2 C0 1.34 0 0.68 0 0 Z " fill="#FFFFFF" transform="translate(626,1370)"/>
<path d="M0 0 C3.28003681 0.56552359 4.97321527 1.32832922 7 4 C8.1875 7.1875 8.1875 7.1875 9 10 C10.32 9.67 11.64 9.34 13 9 C12.32829194 12.8063457 11.27253436 16.35206816 10 20 C9.01 19.67 8.02 19.34 7 19 C5.95590957 16.67359006 5.10309582 14.47250358 4.3125 12.0625 C4.08755859 11.41603516 3.86261719 10.76957031 3.63085938 10.10351562 C2 5.32990597 2 5.32990597 2 3 C1.01 2.67 0.02 2.34 -1 2 C-0.67 1.34 -0.34 0.68 0 0 Z " fill="#000000" transform="translate(546,670)"/>
<path d="M0 0 C0.99 0.33 1.98 0.66 3 1 C3.94921875 3.28515625 3.94921875 3.28515625 4.6875 6.0625 C5.06455078 7.44115234 5.06455078 7.44115234 5.44921875 8.84765625 C5.63097656 9.55792969 5.81273437 10.26820313 6 11 C4.35 11 2.7 11 1 11 C0.87625 11.763125 0.7525 12.52625 0.625 13.3125 C0 16 0 16 -2 19 C-2.99 18.67 -3.98 18.34 -5 18 C-4.56699236 11.18012971 -3.09212176 6.08356979 0 0 Z " fill="#000000" transform="translate(347,663)"/>
<path d="M0 0 C3.10613511 0.04461235 4.02150963 0.2004565 6.6875 2 C8.43383224 4.69226221 8.53732212 6.16410094 8.1875 9.3125 C7.878125 8.6525 7.56875 7.9925 7.25 7.3125 C4.73192986 4.87073502 3.90642628 5.04107594 0.5 5.0625 C-0.9384798 5.12673833 -2.37666999 5.20413547 -3.8125 5.3125 C-3.83958567 6.91657328 -3.85893483 8.5207785 -3.875 10.125 C-3.88660156 11.01832031 -3.89820313 11.91164063 -3.91015625 12.83203125 C-3.92259967 15.44663791 -3.92259967 15.44663791 -2.8125 18.3125 C-6.6875 16.5625 -6.6875 16.5625 -7.8125 14.3125 C-8.16688737 8.90809265 -8.19379657 5.77581148 -4.8125 1.3125 C-3.8125 0.3125 -3.8125 0.3125 0 0 Z " fill="#000000" transform="translate(454.8125,672.6875)"/>
<path d="M0 0 C0.33 0.66 0.66 1.32 1 2 C0.67 2.66 0.34 3.32 0 4 C-1.32 4 -2.64 4 -4 4 C-3.67 8.95 -3.34 13.9 -3 19 C-4.32 19 -5.64 19 -7 19 C-10.63636364 6.27272727 -10.63636364 6.27272727 -8 1 C-5.35139573 0.40644386 -2.70802678 0.25790731 0 0 Z " fill="#000000" transform="translate(538,673)"/>
<path d="M0 0 C1.32 0 2.64 0 4 0 C3.68936785 3.41695365 3.38121598 5.50986517 1.25 8.25 C-2.71743848 11.33578549 -5.99738973 12.28586344 -11 12 C-11.33 10.68 -11.66 9.36 -12 8 C-8.7 7.34 -5.4 6.68 -2 6 C-1.34 4.02 -0.68 2.04 0 0 Z " fill="#000000" transform="translate(1041,568)"/>
<path d="M0 0 C1.32 0 2.64 0 4 0 C4.33 1.65 4.66 3.3 5 5 C5.99 5 6.98 5 8 5 C8 4.34 8 3.68 8 3 C8.99 2.67 9.98 2.34 11 2 C11.6875 3.8125 11.6875 3.8125 12 6 C10.37060202 8.58786739 9.00232701 8.99930685 6.0625 9.875 C3 10 3 10 0.625 8.5625 C0.08875 8.046875 -0.4475 7.53125 -1 7 C-0.67 4.69 -0.34 2.38 0 0 Z " fill="#000000" transform="translate(696,837)"/>
<path d="M0 0 C0.598125 0.61875 1.19625 1.2375 1.8125 1.875 C6.27101819 4.84734546 10.75716052 5.30217898 16 6 C16.33 6.99 16.66 7.98 17 9 C11.04099323 10.39466116 6.52902197 9.70022003 1 7 C-0.765625 5.390625 -0.765625 5.390625 -2 4 C-1.34 2.68 -0.68 1.36 0 0 Z " fill="#000000" transform="translate(650,1264)"/>
<path d="M0 0 C1.258125 0.33 2.51625 0.66 3.8125 1 C6.38987302 1.67603227 8.30212925 2 11 2 C11 1.34 11 0.68 11 0 C12.9375 0.3125 12.9375 0.3125 15 1 C15.33 1.99 15.66 2.98 16 4 C15.67 4.66 15.34 5.32 15 6 C11.33503493 7.16507311 7.5772853 7.80460708 4.0703125 6.015625 C2.4375 4.6875 2.4375 4.6875 0 2 C0 1.34 0 0.68 0 0 Z " fill="#000000" transform="translate(527,693)"/>
<path d="M0 0 C1.32 0.33 2.64 0.66 4 1 C3.6875 3.375 3.6875 3.375 3 6 C-1.22787116 8.81858077 -5.03222076 8.68030098 -10 8 C-13.125 6 -13.125 6 -15 4 C-14.31292969 4.01160156 -13.62585938 4.02320313 -12.91796875 4.03515625 C-11.56638672 4.04869141 -11.56638672 4.04869141 -10.1875 4.0625 C-8.84751953 4.07990234 -8.84751953 4.07990234 -7.48046875 4.09765625 C-4.86586209 4.11009967 -4.86586209 4.11009967 -2 3 C-1.34 2.01 -0.68 1.02 0 0 Z " fill="#000000" transform="translate(621,691)"/>
<path d="M0 0 C0.99 0 1.98 0 3 0 C3.36875341 3.87191078 3.07486527 5.85026947 1.3125 9.375 C-1 12 -1 12 -3.75 12.375 C-4.4925 12.25125 -5.235 12.1275 -6 12 C-7.76462683 8.91190305 -8 7.76687864 -8 4 C-5 5 -5 5 -3 7 C-2.01 4.69 -1.02 2.38 0 0 Z " fill="#000000" transform="translate(199,1438)"/>
<path d="M0 0 C1.2375 0.1546875 1.2375 0.1546875 2.5 0.3125 C4.5 3.3125 4.5 3.3125 4.25 5.375 C3.5 7.3125 3.5 7.3125 1.5 9.3125 C-3.05555556 8.75694444 -3.05555556 8.75694444 -4.5 7.3125 C-4.6875 4.875 -4.6875 4.875 -4.5 2.3125 C-2.5 0.3125 -2.5 0.3125 0 0 Z " fill="#FFFFFF" transform="translate(836.5,996.6875)"/>
<path d="M0 0 C1.67542976 0.28604898 3.34385343 0.61781233 5 1 C4.67 1.99 4.34 2.98 4 4 C3.34 4 2.68 4 2 4 C2 8.62 2 13.24 2 18 C1.01 18 0.02 18 -1 18 C-1.02684312 15.18743719 -1.04676188 12.37512759 -1.0625 9.5625 C-1.07087891 8.76005859 -1.07925781 7.95761719 -1.08789062 7.13085938 C-1.0965143 5.08704779 -1.0522815 3.04316098 -1 1 C-0.67 0.67 -0.34 0.34 0 0 Z " fill="#000000" transform="translate(229,1446)"/>
<path d="M0 0 C1.32 0.33 2.64 0.66 4 1 C4.04254356 2.99954746 4.04080783 5.00041636 4 7 C3 8 3 8 -0.3125 8.1875 C-5.35762224 7.93096836 -5.35762224 7.93096836 -8 6 C-8.33 5.01 -8.66 4.02 -9 3 C-5.72724974 3 -3.153368 3.29925156 0 4 C0 2.68 0 1.36 0 0 Z " fill="#000000" transform="translate(383,692)"/>
<path d="M0 0 C2.25 1.375 2.25 1.375 4.25 4.375 C-0.205 4.87 -0.205 4.87 -4.75 5.375 C-4.75 6.035 -4.75 6.695 -4.75 7.375 C-6.4 7.375 -8.05 7.375 -9.75 7.375 C-9.625 5.0625 -9.625 5.0625 -8.75 2.375 C-5.54543477 0.11723813 -3.88753652 -0.88353103 0 0 Z " fill="#000000" transform="translate(614.75,672.625)"/>
<path d="M0 0 C0.99 0 1.98 0 3 0 C3.61875 1.670625 3.61875 1.670625 4.25 3.375 C5.35546516 5.99320695 5.74880787 6.83493089 8.1875 8.4375 C8.785625 8.623125 9.38375 8.80875 10 9 C9.67 9.99 9.34 10.98 9 12 C5.14304875 11.77960279 3.98383598 10.98453876 1.125 8.25 C-1 5 -1 5 -0.8125 2.125 C-0.544375 1.42375 -0.27625 0.7225 0 0 Z " fill="#000000" transform="translate(662,1188)"/>
<path d="M0 0 C6.11774896 -0.49940808 9.02495953 0.75099398 14 4 C14 4.99 14 5.98 14 7 C13.45859375 6.85691406 12.9171875 6.71382812 12.359375 6.56640625 C9.67007168 5.92079535 6.97254755 5.4236692 4.25 4.9375 C3.26515625 4.76089844 2.2803125 4.58429688 1.265625 4.40234375 C0.14414063 4.20318359 0.14414063 4.20318359 -1 4 C-0.67 2.68 -0.34 1.36 0 0 Z " fill="#000000" transform="translate(189,1426)"/>
<path d="M0 0 C0.99 0 1.98 0 3 0 C2.69163768 2.12560437 2.37818386 4.25047065 2.0625 6.375 C1.88847656 7.55835938 1.71445313 8.74171875 1.53515625 9.9609375 C1 13 1 13 0 15 C-1.65 14.67 -3.3 14.34 -5 14 C-5 13.34 -5 12.68 -5 12 C-4.01 12 -3.02 12 -2 12 C-2.02320313 11.38511719 -2.04640625 10.77023437 -2.0703125 10.13671875 C-2.08835938 9.32847656 -2.10640625 8.52023437 -2.125 7.6875 C-2.14820313 6.88699219 -2.17140625 6.08648438 -2.1953125 5.26171875 C-2 3 -2 3 0 0 Z " fill="#000000" transform="translate(233,1505)"/>
<path d="M0 0 C5.29397231 0.30542148 8.13397287 1.36827755 12 5 C11.67 5.99 11.34 6.98 11 8 C9.68 7.67 8.36 7.34 7 7 C7 6.34 7 5.68 7 5 C4.69 4.67 2.38 4.34 0 4 C-0.33 3.01 -0.66 2.02 -1 1 C-0.67 0.67 -0.34 0.34 0 0 Z " fill="#000000" transform="translate(709,1014)"/>
<path d="M0 0 C0.66 0.66 1.32 1.32 2 2 C1.625 4.625 1.625 4.625 1 7 C-5.4 8.23076923 -5.4 8.23076923 -8.4375 7.0625 C-8.953125 6.711875 -9.46875 6.36125 -10 6 C-10 5.01 -10 4.02 -10 3 C-7.03 3.33 -4.06 3.66 -1 4 C-0.67 2.68 -0.34 1.36 0 0 Z " fill="#000000" transform="translate(246,691)"/>
<path d="M0 0 C0.99 0.33 1.98 0.66 3 1 C2.6875 2.875 2.6875 2.875 2 5 C-1.71013399 7.47342266 -3.61060262 7.38503486 -8 7 C-10.22265625 5.48046875 -10.22265625 5.48046875 -12 4 C-11.21753906 3.87882813 -10.43507813 3.75765625 -9.62890625 3.6328125 C-8.11103516 3.38144531 -8.11103516 3.38144531 -6.5625 3.125 C-5.55316406 2.96257813 -4.54382813 2.80015625 -3.50390625 2.6328125 C-2.67761719 2.42398438 -1.85132813 2.21515625 -1 2 C-0.67 1.34 -0.34 0.68 0 0 Z " fill="#000000" transform="translate(300,692)"/>
<path d="M0 0 C2.5 0.125 2.5 0.125 3.5 1.125 C3.625 3.625 3.625 3.625 3.5 6.125 C2.5 7.125 2.5 7.125 0 7.25 C-2.5 7.125 -2.5 7.125 -3.5 6.125 C-3.625 3.625 -3.625 3.625 -3.5 1.125 C-2.5 0.125 -2.5 0.125 0 0 Z " fill="#FFFFFF" transform="translate(184.5,1536.875)"/>
<path d="M0 0 C0.99 0.33 1.98 0.66 3 1 C2.49287967 4.71888239 1.88391785 7.73454239 0 11 C-1.32 11 -2.64 11 -4 11 C-3.39301257 6.87248551 -1.96189209 3.6678852 0 0 Z " fill="#000000" transform="translate(711,823)"/>
<path d="M0 0 C0.99 0.33 1.98 0.66 3 1 C2.69078116 2.45903258 2.37751201 3.91720722 2.0625 5.375 C1.88847656 6.18710937 1.71445312 6.99921875 1.53515625 7.8359375 C1 10 1 10 0 12 C-0.99 12 -1.98 12 -3 12 C-2.88541307 10.56163249 -2.75790884 9.12429034 -2.625 7.6875 C-2.55539062 6.88699219 -2.48578125 6.08648438 -2.4140625 5.26171875 C-2 3 -2 3 0 0 Z " fill="#000000" transform="translate(703,820)"/>
<path d="M0 0 C0.66 0.33 1.32 0.66 2 1 C2 2.32 2 3.64 2 5 C-0.24512262 6.12256131 -1.51456649 6.13413762 -4 6.125 C-5.051875 6.12886719 -5.051875 6.12886719 -6.125 6.1328125 C-8 6 -8 6 -10 5 C-10 4.01 -10 3.02 -10 2 C-7.03 2.33 -4.06 2.66 -1 3 C-0.67 2.01 -0.34 1.02 0 0 Z " fill="#000000" transform="translate(603,1468)"/>
<path d="M0 0 C0.99 0.33 1.98 0.66 3 1 C3.73046875 2.84765625 3.73046875 2.84765625 4.1875 5.0625 C4.34605469 5.79597656 4.50460938 6.52945313 4.66796875 7.28515625 C4.83232422 8.13400391 4.83232422 8.13400391 5 9 C3.125 9.625 3.125 9.625 1 10 C-1 8 -1 8 -1.1875 4.4375 C-1 1 -1 1 0 0 Z " fill="#000000" transform="translate(188,84)"/>
<path d="M0 0 C0.99 0.33 1.98 0.66 3 1 C3 3.97 3 6.94 3 10 C2.01 10.495 2.01 10.495 1 11 C0.34 10.67 -0.32 10.34 -1 10 C-1.02689216 8.52093108 -1.04634621 7.04172517 -1.0625 5.5625 C-1.07410156 4.73878906 -1.08570313 3.91507812 -1.09765625 3.06640625 C-1 1 -1 1 0 0 Z " fill="#000000" transform="translate(173,84)"/>
<path d="M0 0 C3.96 0.33 7.92 0.66 12 1 C12 1.99 12 2.98 12 4 C10.37509046 4.02698189 8.75005367 4.04638757 7.125 4.0625 C5.76761719 4.07990234 5.76761719 4.07990234 4.3828125 4.09765625 C2 4 2 4 0 3 C0 2.01 0 1.02 0 0 Z " fill="#000000" transform="translate(184,1512)"/>
<path d="M0 0 C0.99 0.66 1.98 1.32 3 2 C2.67 3.32 2.34 4.64 2 6 C-0.91482778 6.80967438 -2.46113217 7.21845993 -5.3125 6.0625 C-5.869375 5.711875 -6.42625 5.36125 -7 5 C-7 4.34 -7 3.68 -7 3 C-4.69 3 -2.38 3 0 3 C0 2.01 0 1.02 0 0 Z " fill="#000000" transform="translate(489,692)"/>
<path d="M0 0 C0.99 0.33 1.98 0.66 3 1 C2.37240135 3.92879371 1.41377341 6.36095629 0 9 C-0.99 9 -1.98 9 -3 9 C-3.36923077 3.46153846 -3.36923077 3.46153846 -1.5 1.125 C-1.005 0.75375 -0.51 0.3825 0 0 Z " fill="#000000" transform="translate(158,84)"/>
<path d="M0 0 C0.99 0 1.98 0 3 0 C3 3.3 3 6.6 3 10 C1.68 9.67 0.36 9.34 -1 9 C-1.09765625 2.84765625 -1.09765625 2.84765625 -1 1 C-0.67 0.67 -0.34 0.34 0 0 Z " fill="#000000" transform="translate(191,1476)"/>
<path d="M0 0 C1.875 0.625 1.875 0.625 4 2 C5.25 5.125 5.25 5.125 6 8 C2 8 2 8 0.1875 6.25 C-1 4 -1 4 -0.6875 1.75 C-0.460625 1.1725 -0.23375 0.595 0 0 Z " fill="#000000" transform="translate(939,80)"/>
<path d="M0 0 C1.32 0.33 2.64 0.66 4 1 C4 1.66 4 2.32 4 3 C4.99 3.33 5.98 3.66 7 4 C7 5.32 7 6.64 7 8 C4.03824877 7.38722388 2.61941217 6.74627478 0 5 C-0.1875 2.375 -0.1875 2.375 0 0 Z " fill="#000000" transform="translate(959,78)"/>
<path d="M0 0 C1.98 0.66 3.96 1.32 6 2 C6.33 3.65 6.66 5.3 7 7 C3.42424104 7 1.94704065 5.91159393 -1 4 C-0.67 2.68 -0.34 1.36 0 0 Z " fill="#000000" transform="translate(715,1006)"/>
<path d="M0 0 C0.928125 0.33 1.85625 0.66 2.8125 1 C5.92029291 2.14967004 5.92029291 2.14967004 9 2 C9 2.99 9 3.98 9 5 C6.21571665 5.77341204 4.52724898 6.17574966 1.75 5.25 C0 4 0 4 -1 1 C-0.67 0.67 -0.34 0.34 0 0 Z " fill="#FFFFFF" transform="translate(659,1037)"/>
<path d="M0 0 C-0.33 1.32 -0.66 2.64 -1 4 C-3.64 3.67 -6.28 3.34 -9 3 C-9.33 2.01 -9.66 1.02 -10 0 C-2.25 -1.125 -2.25 -1.125 0 0 Z " fill="#000000" transform="translate(197,1467)"/>
<path d="M0 0 C0.66 0 1.32 0 2 0 C1.67 1.98 1.34 3.96 1 6 C-1.875 6.1875 -1.875 6.1875 -5 6 C-5.66 5.01 -6.32 4.02 -7 3 C-4 2 -4 2 -1 3 C-0.67 2.01 -0.34 1.02 0 0 Z " fill="#FFFFFF" transform="translate(849,1007)"/>
<path d="M0 0 C0.99 0.33 1.98 0.66 3 1 C2.34 2.32 1.68 3.64 1 5 C-1.31 5 -3.62 5 -6 5 C-6 3.68 -6 2.36 -6 1 C-4.7934375 1.0309375 -4.7934375 1.0309375 -3.5625 1.0625 C-1.06645115 1.29633621 -1.06645115 1.29633621 0 0 Z " fill="#000000" transform="translate(222,1455)"/>
<path d="M0 0 C-0.5625 1.9375 -0.5625 1.9375 -2 4 C-5.625 4.75 -5.625 4.75 -9 5 C-9 4.01 -9 3.02 -9 2 C-3.375 -1.125 -3.375 -1.125 0 0 Z " fill="#020202" transform="translate(209,1465)"/>
<path d="M0 0 C2.64 0 5.28 0 8 0 C7.67 1.32 7.34 2.64 7 4 C1.25 4.125 1.25 4.125 -1 3 C-0.67 2.01 -0.34 1.02 0 0 Z " fill="#000000" transform="translate(211,1514)"/>
<path d="M0 0 C2.4375 0.75 2.4375 0.75 5 2 C5.8125 4.125 5.8125 4.125 6 6 C2 6 2 6 0.25 4.5 C-0.1625 4.005 -0.575 3.51 -1 3 C-0.67 2.01 -0.34 1.02 0 0 Z " fill="#000000" transform="translate(903,1017)"/>
<path d="M0 0 C0.99 0 1.98 0 3 0 C3.6875 3.3125 3.6875 3.3125 4 7 C2.5625 8.9375 2.5625 8.9375 1 10 C0.01 9.67 -0.98 9.34 -2 9 C-1.34 8.34 -0.68 7.68 0 7 C0.16677282 3.41656024 0.16677282 3.41656024 0 0 Z " fill="#000000" transform="translate(216,681)"/>
<path d="M0 0 C0.99 0 1.98 0 3 0 C2.6875 1.875 2.6875 1.875 2 4 C-1 6 -1 6 -3.1875 5.625 C-3.785625 5.41875 -4.38375 5.2125 -5 5 C-5 4.34 -5 3.68 -5 3 C-4.360625 2.87625 -3.72125 2.7525 -3.0625 2.625 C-2.0415625 2.315625 -2.0415625 2.315625 -1 2 C-0.67 1.34 -0.34 0.68 0 0 Z " fill="#000000" transform="translate(205,1508)"/>
<path d="M0 0 C1.98 0 3.96 0 6 0 C6.66 1.65 7.32 3.3 8 5 C4.62537285 4.45276317 2.91765 3.9451 0 2 C0 1.34 0 0.68 0 0 Z " fill="#000000" transform="translate(221,1507)"/>
<path d="M0 0 C0.99 0 1.98 0 3 0 C3.125 6.75 3.125 6.75 2 9 C1.01 8.67 0.02 8.34 -1 8 C-0.67 5.36 -0.34 2.72 0 0 Z " fill="#000000" transform="translate(225,1496)"/>
<path d="M0 0 C0.99 0 1.98 0 3 0 C3 2.64 3 5.28 3 8 C2.01 8 1.02 8 0 8 C0 5.36 0 2.72 0 0 Z " fill="#000000" transform="translate(230,1496)"/>
<path d="M0 0 C0.99 0.33 1.98 0.66 3 1 C2.67 2.32 2.34 3.64 2 5 C0.68 5.33 -0.64 5.66 -2 6 C-1.125 1.125 -1.125 1.125 0 0 Z " fill="#000000" transform="translate(924,80)"/>
<path d="M0 0 C1.32 0 2.64 0 4 0 C4 0.66 4 1.32 4 2 C3.34 2 2.68 2 2 2 C2 2.99 2 3.98 2 5 C2.66 5.33 3.32 5.66 4 6 C2.35 5.67 0.7 5.34 -1 5 C-0.67 3.35 -0.34 1.7 0 0 Z " fill="#FFFFFF" transform="translate(180,1528)"/>
<path d="M0 0 C0.99 0 1.98 0 3 0 C3 2.31 3 4.62 3 7 C2.01 7 1.02 7 0 7 C0 4.69 0 2.38 0 0 Z " fill="#000000" transform="translate(199,1500)"/>
<path d="M0 0 C2.0625 0.4375 2.0625 0.4375 4 1 C4 1.99 4 2.98 4 4 C2.35 4.33 0.7 4.66 -1 5 C-1 1 -1 1 0 0 Z " fill="#000000" transform="translate(1020,1460)"/>
<path d="M0 0 C2.88437779 1.29299694 4.87219421 2.65941363 7 5 C4.69 5 2.38 5 0 5 C0 3.35 0 1.7 0 0 Z " fill="#000000" transform="translate(530,666)"/>
<path d="M0 0 C4.875 4.75 4.875 4.75 6 7 C3.03 6.505 3.03 6.505 0 6 C0 4.02 0 2.04 0 0 Z " fill="#000000" transform="translate(481,664)"/>
<path d="M0 0 C1.65 0 3.3 0 5 0 C5.33 1.32 5.66 2.64 6 4 C3.03 3.505 3.03 3.505 0 3 C0 2.01 0 1.02 0 0 Z " fill="#000000" transform="translate(992,1462)"/>
<path d="M0 0 C0.99 0.33 1.98 0.66 3 1 C3.33 2.65 3.66 4.3 4 6 C2.68 5.67 1.36 5.34 0 5 C0 3.35 0 1.7 0 0 Z " fill="#000000" transform="translate(656,1306)"/>
<path d="M0 0 C1.98 0 3.96 0 6 0 C6 0.99 6 1.98 6 3 C4.35 3 2.7 3 1 3 C0.67 2.01 0.34 1.02 0 0 Z " fill="#FFFFFF" transform="translate(584,1009)"/>
<path d="M0 0 C1.32 0.66 2.64 1.32 4 2 C3.67 3.32 3.34 4.64 3 6 C1.68 5.01 0.36 4.02 -1 3 C-0.67 2.01 -0.34 1.02 0 0 Z " fill="#000000" transform="translate(472,672)"/>
<path d="M0 0 C0.99 0 1.98 0 3 0 C2.67 1.32 2.34 2.64 2 4 C0.68 4.33 -0.64 4.66 -2 5 C-1.34 3.35 -0.68 1.7 0 0 Z " fill="#000000" transform="translate(191,1506)"/>
<path d="M0 0 C0.99 0.33 1.98 0.66 3 1 C2.67 2.65 2.34 4.3 2 6 C1.01 6 0.02 6 -1 6 C-0.67 4.02 -0.34 2.04 0 0 Z " fill="#000000" transform="translate(216,1504)"/>
<path d="M0 0 C1.2065625 0.0309375 1.2065625 0.0309375 2.4375 0.0625 C2.4375 1.0525 2.4375 2.0425 2.4375 3.0625 C1.1175 3.3925 -0.2025 3.7225 -1.5625 4.0625 C-2.2225 3.0725 -2.8825 2.0825 -3.5625 1.0625 C-2.5625 0.0625 -2.5625 0.0625 0 0 Z " fill="#000000" transform="translate(601.5625,1478.9375)"/>
<path d="M0 0 C2.475 0.495 2.475 0.495 5 1 C4.67 1.99 4.34 2.98 4 4 C2.68 3.67 1.36 3.34 0 3 C0 2.01 0 1.02 0 0 Z " fill="#000000" transform="translate(657,1176)"/>
</svg>
